<svg id="logo" viewBox="0 0 170 54" fill="none" xmlns="http://www.w3.org/2000/svg"><path transform="translate(.35 1)" fill="#fff" d="M0 0h169.65v52H0z"/><path d="m42.904 40.315 4.62-4.57-10.121-10.009-4.62 4.57 10.12 10.009Z" fill="#fff"/><path fill-rule="evenodd" clip-rule="evenodd" d="m42.904 40.315 4.62-4.57-10.121-10.009-4.62 4.57 10.12 10.009v0Z" stroke="#4C39E3" stroke-width=".7" stroke-linecap="round" stroke-linejoin="round"/><path d="M58.672 51.34a5.625 5.625 0 0 0-.095-8.109L46.11 31.463l-7.537 7.454 11.9 12.328c2.222 2.302 5.924 2.345 8.199.095Z" fill="#F6FEFF"/><mask id="mask0_701_13061" style="mask-type:luminance" maskUnits="userSpaceOnUse" x="38" y="31" width="23" height="22"><path fill-rule="evenodd" clip-rule="evenodd" d="M58.672 51.34a5.625 5.625 0 0 0-.095-8.109L46.11 31.463l-7.537 7.454 11.9 12.328c2.222 2.302 5.924 2.345 8.199.095Z" fill="#fff"/></mask><g mask="url('#mask0_701_13061')"><path d="M37.226 36.882c18.188 19.121 20.187 10.473 24.251 7.4 4.065-3.072 1.309 11.127 1.309 11.127l-7.052 8.851-16.073-13.516-1.57-9.983" fill="#E9FCFF"/></g><path fill-rule="evenodd" clip-rule="evenodd" d="M58.672 51.34v0a5.625 5.625 0 0 0-.095-8.109L46.11 31.463l-7.537 7.454 11.9 12.328c2.222 2.302 5.924 2.345 8.199.095Z" stroke="#4C39E3" stroke-width=".7" stroke-linecap="round" stroke-linejoin="round"/><path fill-rule="evenodd" clip-rule="evenodd" d="M38.571 6.195c-7.004-6.927-18.36-6.927-25.363 0a17.599 17.599 0 0 0 0 25.083c7.004 6.927 18.36 6.927 25.363 0a17.599 17.599 0 0 0 0-25.083Zm-3.386 3.348a12.9 12.9 0 0 1 0 18.387c-5.134 5.077-13.458 5.077-18.592 0a12.9 12.9 0 0 1 0-18.387c5.134-5.077 13.458-5.077 18.592 0Z" fill="#E9FCFF"/><path d="m13.208 6.195.246.249-.246-.249Zm25.363 0 .246-.249-.246.249ZM13.208 31.278l.246-.248-.246.248Zm21.977-3.348-.246-.25.246.25ZM12.962 5.946c7.14-7.061 18.715-7.061 25.855 0l-.492.498c-6.867-6.792-18.004-6.792-24.871 0l-.492-.498Zm25.855 0a17.949 17.949 0 0 1 0 25.581l-.492-.497a17.249 17.249 0 0 0 0-24.586l.492-.498Zm0 25.581c-7.14 7.062-18.715 7.062-25.855 0l.492-.497c6.867 6.791 18.004 6.791 24.871 0l.492.497Zm-25.855 0a17.949 17.949 0 0 1 0-25.58l.492.497a17.249 17.249 0 0 0 0 24.586l-.492.497Zm21.977-3.846a12.55 12.55 0 0 0 0-17.889l.492-.497a13.25 13.25 0 0 1 0 18.884l-.492-.498Zm0-17.889c-4.998-4.942-13.102-4.942-18.1 0l-.492-.497c5.27-5.213 13.813-5.213 19.084 0l-.492.497Zm-18.1 0a12.55 12.55 0 0 0 0 17.889l-.492.498a13.25 13.25 0 0 1 0-18.884l.492.497Zm0 17.889c4.998 4.942 13.102 4.942 18.1 0l.492.498c-5.27 5.212-13.814 5.212-19.084 0l.492-.498Z" fill="#4C39E3"/><path d="m33.158 9.232.203-1.125s2.014-.846 2.572 1.888c.557 2.735-1.136 2.67.214 3.879 1.35 1.208 2.893 2.861 1.382 3.815-1.51.954-7.747-.604-7.747-.604l1.125-4.094 2.251-3.759Z" fill="#21273D" stroke="#21273D" stroke-width=".7" stroke-linecap="round" stroke-linejoin="round"/><path d="m34.8 11.974.465 3.565-2.84-.19.497-4.04 1.878.665Z" fill="#fff"/><mask id="mask1_701_13061" style="mask-type:luminance" maskUnits="userSpaceOnUse" x="32" y="11" width="4" height="5"><path fill-rule="evenodd" clip-rule="evenodd" d="m34.8 11.974.465 3.565-2.84-.19.497-4.04 1.878.665Z" fill="#fff"/></mask><g mask="url('#mask1_701_13061')"><path d="M34.942 14.734c-.53-.885-.815-1.388-.815-1.388l.843-.227s.503 2.5-.028 1.615Z" fill="#fff"/></g><path fill-rule="evenodd" clip-rule="evenodd" d="m34.8 11.974.465 3.565-2.84-.19.497-4.04 1.878.665v0Z" stroke="#21273D" stroke-width=".7" stroke-linecap="round" stroke-linejoin="round"/><path d="m33.378 11.634-1.027-2.512L33.548 9c.965.073 1.489.103 2.012.74l.649 1.219c.198.37.188.79-.027 1.154-.215.364-.614.639-1.099.755L34.53 13" fill="#fff"/><mask id="mask2_701_13061" style="mask-type:luminance" maskUnits="userSpaceOnUse" x="31" y="8" width="5" height="6"><path fill-rule="evenodd" clip-rule="evenodd" d="m32.955 11.78-1.008-3.056 1.174-.149c.946.09 1.46.125 1.973.901l.636 1.482c.194.45.185.961-.026 1.404-.21.444-.602.778-1.078.92l-.542.16" fill="#fff"/></mask><g mask="url('#mask2_701_13061')"><path d="M35.392 10.35c-.027 0-.049.026-.047.055l.003.092c.001.03.025.053.052.052a.048.048 0 0 0 .035-.017.056.056 0 0 0 .013-.039l-.004-.091c0-.03-.024-.053-.052-.052Z" fill="#21273D"/><rect width=".1" height=".2" rx=".05" transform="matrix(-.99928 .03799 .0391 .99924 34.335 10.342)" fill="#21273D"/><path d="m34.76 10.86.028.348c.446.044-.015.377-.015.377M34.493 11.612c.01.093.085.166.179.175" stroke="#21273D" stroke-width=".1" stroke-linecap="round" stroke-linejoin="round"/></g><path d="m33.378 11.293-1.027-3.14L33.548 8c.965.092 1.489.128 2.012.926l.649 1.522a1.76 1.76 0 0 1-.027 1.443 1.78 1.78 0 0 1-1.099.944L34.53 13" stroke="#21273D" stroke-width=".7" stroke-linecap="round" stroke-linejoin="round"/><path d="M33.682 8.214c2.122 3.01-2.478 3.156-.963 7.486 1.279 3.657 1.017 4.406-3.173 2.349-2.936-1.441 1.522-11.17 4.136-9.835Z" fill="#21273D" stroke="#21273D" stroke-width=".7" stroke-linecap="round" stroke-linejoin="round"/><path d="M33.58 11.502a1.716 1.716 0 0 0-.17-.168c-.46-.398-1.041-.485-1.298-.195-.256.29-.09.848.37 1.246.11.095.23.175.36.239" fill="#fff"/><path d="M33.58 11.502a1.716 1.716 0 0 0-.17-.168c-.46-.398-1.041-.485-1.298-.195-.256.29-.09.848.37 1.246.11.095.23.175.36.239" stroke="#21273D" stroke-width=".7" stroke-linecap="round" stroke-linejoin="round"/><path d="M23.907 12.395c.488-1.037.662-2.997.732-3.12.152-.266 2.06-1.434 2.268-1.44.209-.006.303.238-.797 1.195 0 0 .563.327.505.54-.031.115-1.236 3.214-1.236 3.214l-1.472-.39Z" fill="#fff"/><mask id="mask3_701_13061" style="mask-type:luminance" maskUnits="userSpaceOnUse" x="23" y="7" width="5" height="6"><path fill-rule="evenodd" clip-rule="evenodd" d="M23.908 12.395c.488-1.037.662-2.997.732-3.12.152-.266 2.06-1.434 2.268-1.44.209-.006.303.238-.797 1.195 0 0 .563.327.505.54-.031.115-1.236 3.214-1.236 3.214l-1.472-.39Z" fill="#fff"/></mask><g mask="url('#mask3_701_13061')"><path d="M27.723 11.95c-1.974-1.807-3.232-1.81-3.232-1.81l-.058 1.81 3.677.206" fill="#fff"/></g><path fill-rule="evenodd" clip-rule="evenodd" d="M23.907 12.395c.488-1.037.662-2.997.732-3.12.152-.266 2.06-1.434 2.268-1.44.209-.006.303.238-.797 1.195 0 0 .563.327.505.54-.031.115-1.236 3.214-1.236 3.214l-1.472-.39Z" stroke="#21273D" stroke-width=".7" stroke-linecap="round" stroke-linejoin="round"/><path d="M29.452 15.2c-.136-.09-4.692.551-4.692.551s1.689-4.21 1.46-4.478c-.894-1.048-2.31-1.298-2.31-1.298l-2.29 6.057c-.477 1.26.276 2.648 1.602 2.951l7.217-.26-.987-3.523Z" fill="#B4F5FF"/><path fill-rule="evenodd" clip-rule="evenodd" d="M29.452 15.2c-.136-.09-4.692.551-4.692.551s1.689-4.21 1.46-4.478c-.894-1.048-2.31-1.298-2.31-1.298l-2.29 6.057c-.477 1.26.276 2.648 1.602 2.951l7.217-.26-.987-3.523Z" stroke="#21273D" stroke-width=".7" stroke-linecap="round" stroke-linejoin="round"/><path d="m10.1 30.156-1.572-1.752 2.615-2.626 1.657 1.847-2.7 2.531Z" fill="#fff" stroke="#21273D" stroke-width=".7" stroke-linecap="round" stroke-linejoin="round"/><path d="M4.35 26.228a1.24 1.24 0 0 1 1.67-.136c1.134.868 2.522 1.766 3.082 1.403l1.85 2.04L9.3 31.25a.391.391 0 0 1-.576-.014L4.35 26.228Z" fill="#21273D" stroke="#21273D" stroke-width=".7" stroke-linecap="round" stroke-linejoin="round"/><path d="M13.173 29.968c-.884 1.096-3.345-3.594-3.345-3.594l9.53-8.71a1.654 1.654 0 0 1 2.267.151l11.742 9.036-7.233 1.112-1.234-.152-4.717-4.482s-6.416 5.904-7.01 6.64Z" fill="#21273D"/><mask id="mask4_701_13061" style="mask-type:luminance" maskUnits="userSpaceOnUse" x="9" y="17" width="25" height="14"><path fill-rule="evenodd" clip-rule="evenodd" d="M13.173 29.967c-.884 1.096-3.345-3.594-3.345-3.594l9.53-8.71a1.654 1.654 0 0 1 2.267.151l11.742 9.036-7.233 1.112-1.234-.151-4.717-4.483s-6.416 5.904-7.01 6.64Z" fill="#fff"/></mask><g mask="url('#mask4_701_13061')"><ellipse cx="2.592" cy="2.563" rx="2.592" ry="2.563" transform="matrix(-1 0 0 1 22.31 13.632)" fill="#fff"/><path d="M10.954 23.516c-.96 1.038 3.53 6.435 3.53 6.435l-3.53-6.435Z" fill="#21273D"/><path d="M10.954 23.516c-.96 1.038 3.53 6.435 3.53 6.435" stroke="#21273D" stroke-width=".7" stroke-linecap="round" stroke-linejoin="round"/></g><path fill-rule="evenodd" clip-rule="evenodd" d="M13.173 29.968c-.884 1.096-3.345-3.594-3.345-3.594l9.53-8.71a1.654 1.654 0 0 1 2.267.151l11.742 9.036-7.233 1.112-1.234-.152-4.717-4.482s-6.416 5.904-7.01 6.64Z" fill="#FEC204" stroke="#21273D" stroke-width=".7" stroke-linecap="round" stroke-linejoin="round"/><path d="m19.521 48.89-2.397-.069-.696-5.007 2.74-1.738.354 6.813Z" fill="#fff"/><mask id="mask5_701_13061" style="mask-type:luminance" maskUnits="userSpaceOnUse" x="16" y="42" width="4" height="7"><path fill-rule="evenodd" clip-rule="evenodd" d="m19.523 48.888-2.398-.068-.696-5.007 2.74-1.738.354 6.813Z" fill="#fff"/></mask><g mask="url('#mask5_701_13061')"><path d="M21.981 45.107c-1.264 1.172-5.444.687-5.444.687l2.986-1.685 1.375.69" fill="#fff"/></g><path fill-rule="evenodd" clip-rule="evenodd" d="m19.521 48.89-2.397-.069-.696-5.007 2.74-1.738.354 6.813v0Z" stroke="#21273D" stroke-width=".7" stroke-linecap="round" stroke-linejoin="round"/><path d="M11.827 50.751c-.047-.886.503-1.246 1.307-1.411 1.776-.364 3.54-1.278 3.684-2.171l2.805.193.187 2.303a.82.82 0 0 1-.211.619.844.844 0 0 1-.6.275l-7.172.192Z" fill="#21273D" stroke="#21273D" stroke-width=".7" stroke-linecap="round" stroke-linejoin="round"/><path d="M20.707 44.406c-.052.911-4.781 1.627-4.781 1.627l-2.074-17.401c-.16-1.342 1.122-2.515 2.805-2.567l15.31-.474 3.67.321-.071.53c-.389 2.86-.522 5.134-4.111 4.988l-12.055.028s1.34 12.359 1.307 12.948Z" fill="#FEC204"/><path fill-rule="evenodd" clip-rule="evenodd" d="M20.707 44.406c-.052.911-4.781 1.627-4.781 1.627l-2.074-17.401c-.16-1.342 1.122-2.515 2.805-2.567l15.31-.474 3.67.321-.071.53c-.389 2.86-.522 5.134-4.111 4.988l-12.055.028s1.34 12.359 1.307 12.948Z" stroke="#21273D" stroke-width=".7" stroke-linecap="round" stroke-linejoin="round"/><path d="M28.358 17.113a2.433 2.433 0 0 0 .205 1.687l.702 1.303s-.946 3.396-1.849 4.094c-.903.7 7.959 1.002 7.959 1.002l1.503-9.378s-4.166-1.292-7.426-.62" fill="#B4F5FF"/><mask id="mask6_701_13061" style="mask-type:luminance" maskUnits="userSpaceOnUse" x="27" y="15" width="10" height="11"><path fill-rule="evenodd" clip-rule="evenodd" d="M28.359 17.113a2.433 2.433 0 0 0 .205 1.687l.702 1.303s-.946 3.396-1.849 4.094c-.903.7 7.959 1.002 7.959 1.002l1.503-9.378s-4.166-1.292-7.426-.62" fill="#fff"/></mask><g mask="url('#mask6_701_13061')" stroke="#21273D" stroke-width=".7" stroke-linecap="round" stroke-linejoin="round"><ellipse cx="1.196" cy="2.377" rx="1.196" ry="2.377" transform="matrix(-.51904 -.85475 -.86124 .5082 36.555 15.278)" fill="#fff"/><ellipse cx="1.333" cy="1.319" rx="1.333" ry="1.319" transform="matrix(-1 0 0 1 34.677 19.08)" fill="#E9FCFF"/><path d="m29.557 19.886 1.775.772.781-1.756-1.775-.772-.781 1.756Z" fill="#F5E4FF"/><path d="m31.05 22.241.73-.47-.476-.723-.73.47.476.723Z" fill="#FCFFE9"/></g><path d="M28.358 17.113a2.433 2.433 0 0 0 .205 1.687l.702 1.303s-.946 3.396-1.849 4.094c-.903.7 7.959 1.002 7.959 1.002l1.503-9.378s-4.166-1.292-7.426-.62" stroke="#21273D" stroke-width=".7" stroke-linecap="round" stroke-linejoin="round"/><path d="M29.135 23.527c-.346-.007-3.427.025-4.034-.01-.606-.037-1.444 1.39-1.605 1.697-.16.307.342.376.52.376.179 0 1.55-.647 1.55-.647l4.315.318-.746-1.733Z" fill="#fff"/><mask id="mask7_701_13061" style="mask-type:luminance" maskUnits="userSpaceOnUse" x="23" y="23" width="7" height="3"><path fill-rule="evenodd" clip-rule="evenodd" d="M29.135 23.528c-.346-.007-3.427.025-4.034-.01-.606-.037-1.444 1.39-1.605 1.697-.16.307.342.376.52.376.179 0 1.55-.647 1.55-.647l4.315.318-.746-1.734Z" fill="#fff"/></mask><g mask="url('#mask7_701_13061')"><path d="M27.038 26.077c-1.522-1.885-.71-3.263-.71-3.263l1.658 1.991-.948 1.272Z" fill="#fff"/></g><path fill-rule="evenodd" clip-rule="evenodd" d="M29.135 23.527c-.346-.007-3.427.025-4.034-.01-.606-.037-1.444 1.39-1.605 1.697-.16.307.342.376.52.376.179 0 1.55-.647 1.55-.647l4.315.318-.746-1.733Z" stroke="#21273D" stroke-width=".7" stroke-linecap="round" stroke-linejoin="round"/><path d="M27.384 25.778H17.129v.595h10.857v0a.598.598 0 0 0-.602-.595Z" fill="#4C39E3" stroke="#21273D" stroke-width=".7" stroke-linecap="round" stroke-linejoin="round"/><path d="M17.18 25.779h7.064l-2.123-5.754a.753.753 0 0 0-.707-.489h-5.918a.436.436 0 0 0-.356.183.423.423 0 0 0-.051.392l2.091 5.668Z" fill="#fff"/><mask id="mask8_701_13061" style="mask-type:luminance" maskUnits="userSpaceOnUse" x="15" y="19" width="10" height="7"><path fill-rule="evenodd" clip-rule="evenodd" d="M17.18 25.778h7.064l-2.123-5.754a.753.753 0 0 0-.707-.489h-5.918a.436.436 0 0 0-.356.183.423.423 0 0 0-.051.392l2.091 5.668Z" fill="#fff"/></mask><g mask="url('#mask8_701_13061')"><path d="M15.449 18.467c.348 5.78 4.042 7.407 8.795 7.31 4.754-.095.146 1.322.146 1.322l-10.258-.555-1.896-5.568" fill="#fff"/></g><path fill-rule="evenodd" clip-rule="evenodd" d="M17.18 25.779h7.064l-2.123-5.754a.753.753 0 0 0-.707-.489h-5.918a.436.436 0 0 0-.356.183.423.423 0 0 0-.051.392l2.091 5.668Z" fill="#4C39E3" stroke="#21273D" stroke-width=".7" stroke-linecap="round" stroke-linejoin="round"/><path d="m35.176 18.856.18 4.238-9.028.384s.727 1.967 1.024 2.3c.297.333 9.885 1.253 10.754-.188.87-1.44.415-7.725.415-7.725a2.51 2.51 0 0 0-2.057-2.17l-.575-.118" fill="#B4F5FF"/><path d="m35.176 18.856.18 4.238-9.028.384s.727 1.967 1.024 2.3c.297.333 9.885 1.253 10.754-.188.87-1.44.415-7.725.415-7.725a2.51 2.51 0 0 0-2.057-2.17l-.575-.118" stroke="#21273D" stroke-width=".7" stroke-linecap="round" stroke-linejoin="round"/><path d="m34.876 15.102.245.108v.491l-2.638-.534.1-.332 2.293.267Z" fill="#fff"/><path d="M32.84 11.552a.621.621 0 0 0-.173.014.067.067 0 0 0-.042.022.066.066 0 0 0 .003.063c.022.05.05.098.085.142M32.003 10.236l-.439.46M35.923 23.268a1.199 1.199 0 0 1-.725-.369M24.854 15.786a.53.53 0 0 0-.19.499M18.897 30.602c-.05.354.17.73.507.862" stroke="#21273D" stroke-width=".7" stroke-linecap="round" stroke-linejoin="round"/><mask id="path-69-outside-1_701_13061" maskUnits="userSpaceOnUse" x="51.351" y="3.784" width="116" height="46" fill="#000"><path fill="#fff" d="M51.351 3.784h116v46h-116z"/><path d="M72.559 19.976a3 3 0 0 1-3 3H55.35a3 3 0 0 1-3-3V6.92a1.08 1.08 0 1 1 2.16 0v11.136a3 3 0 0 0 3 3h.84a3 3 0 0 0 3-3V6.92a1.08 1.08 0 1 1 2.16 0v11.136a3 3 0 0 0 3 3h.864a3 3 0 0 0 3-3V6.932a1.092 1.092 0 1 1 2.184 0v13.044ZM84.304 10.404a.861.861 0 1 1 1.29 1.14l-2.655 2.991a2.658 2.658 0 0 0 .005 3.534l3.02 3.386a.913.913 0 1 1-1.363 1.215l-2.392-2.689c-1.1-1.236-3.144-.458-3.144 1.196v.743a1.056 1.056 0 0 1-2.112 0V11.168a1.056 1.056 0 0 1 2.112 0v.655c0 1.576 1.952 2.313 2.994 1.13l2.245-2.549ZM90.712 10.112c.584 0 1.056.473 1.056 1.056V21.92a1.056 1.056 0 1 1-2.112 0V11.168c0-.583.473-1.056 1.056-1.056Zm.024-4.824c.32 0 .6.112.84.336.256.208.384.544.384 1.008 0 .448-.128.784-.384 1.008-.24.224-.52.336-.84.336-.352 0-.648-.112-.888-.336-.24-.224-.36-.56-.36-1.008 0-.464.12-.8.36-1.008.24-.224.536-.336.888-.336ZM105.636 21.908a1.068 1.068 0 1 1-2.136 0v-8.073a1.97 1.97 0 0 0-1.971-1.97c-1.028 0-1.88.79-1.983 1.813a52.913 52.913 0 0 1-.438 3.394c-.24 1.424-.544 2.584-.912 3.48-.368.896-.808 1.552-1.32 1.968a2.768 2.768 0 0 1-1.8.624c-.208 0-.416-.016-.624-.048h-.01c-.298-.027-.47-.309-.47-.608v-.775c0-.158.156-.271.312-.249.112.016.224.024.336.024.352 0 .672-.144.96-.432.288-.288.544-.728.768-1.32.24-.592.456-1.336.648-2.232.192-.912.36-1.984.504-3.216.052-.444.102-.909.15-1.394.153-1.566 1.452-2.782 3.025-2.782h1.961a3 3 0 0 1 3 3v8.796ZM115.647 15.392c1.12 0 2.048.136 2.784.408.736.272 1.288.68 1.656 1.224.384.528.576 1.2.576 2.016 0 .8-.184 1.496-.552 2.088-.352.592-.904 1.048-1.656 1.368-.752.32-1.72.48-2.904.48h-2.832a3 3 0 0 1-3-3v-8.808a1.056 1.056 0 0 1 2.112 0v1.584a2.64 2.64 0 0 0 2.64 2.64h1.176Zm2.904 3.768c0-.784-.28-1.312-.84-1.584-.544-.288-1.312-.432-2.304-.432h-1.512a2.064 2.064 0 1 0 0 4.128h1.56c.896 0 1.632-.16 2.208-.48.592-.32.888-.864.888-1.632ZM125.025 10.112c.583 0 1.056.473 1.056 1.056v1.62a2.676 2.676 0 0 0 2.676 2.676h1.632a2.676 2.676 0 0 0 2.676-2.676v-1.62a1.056 1.056 0 0 1 2.112 0V21.92a1.056 1.056 0 0 1-2.112 0v-1.812a2.868 2.868 0 0 0-2.868-2.868h-1.248a2.868 2.868 0 0 0-2.868 2.868v1.812a1.056 1.056 0 0 1-2.112 0V11.168c0-.583.473-1.056 1.056-1.056ZM141.242 17.96c0 .144-.008.352-.024.624 0 .256-.008.536-.024.84l-.048.84c-.01.157.204.23.289.097l6.057-9.476a1.675 1.675 0 0 1 3.086.902v10.205a.984.984 0 1 1-1.968 0v-7.608l.048-1.224c.009-.244-.324-.35-.455-.145l-5.839 9.179a1.69 1.69 0 0 1-3.114-.907V11.108a.996.996 0 0 1 1.992 0v6.852ZM164.005 4.784c.583 0 1.058.505.896 1.066a3.807 3.807 0 0 1-.413.95c-.32.544-.8.952-1.44 1.224-.64.272-1.472.408-2.496.408-1.04 0-1.88-.136-2.52-.408-.624-.272-1.08-.672-1.368-1.2a4.252 4.252 0 0 1-.365-.986c-.137-.559.329-1.054.905-1.054.51 0 .914.396 1.06.885.117.393.288.682.512.867.384.288.992.432 1.824.432.736 0 1.312-.152 1.728-.456.256-.19.451-.47.583-.84.174-.486.578-.888 1.094-.888Zm-7.341 13.176c0 .144-.008.352-.024.624 0 .256-.008.536-.024.84l-.048.84c-.01.157.204.23.289.097l6.057-9.476a1.675 1.675 0 0 1 3.086.902v10.205a.984.984 0 0 1-1.968 0v-7.608l.048-1.224c.009-.244-.324-.35-.455-.145l-5.839 9.179a1.69 1.69 0 0 1-3.114-.907V11.108a.996.996 0 0 1 1.992 0v6.852ZM116.468 36.112a.888.888 0 0 1 0 1.776h-1.98a2.868 2.868 0 0 0-2.868 2.868v7.164a1.056 1.056 0 0 1-2.112 0v-8.808a3 3 0 0 1 3-3h3.96ZM124.624 35.872c1.104 0 2.048.24 2.832.72.8.48 1.408 1.16 1.824 2.04.432.864.648 1.88.648 3.048 0 .703-.569 1.272-1.272 1.272h-4.469c-1.683 0-3.224 1.526-2.287 2.924.099.147.207.284.324.412.72.752 1.72 1.128 3 1.128.816 0 1.536-.072 2.16-.216.251-.063.504-.135.76-.217.582-.188 1.208.225 1.208.837a.81.81 0 0 1-.515.766c-.48.182-.957.32-1.429.414-.64.144-1.4.216-2.28.216-1.216 0-2.296-.248-3.24-.744-.928-.496-1.656-1.232-2.184-2.208-.512-.992-.768-2.2-.768-3.624 0-1.408.232-2.616.696-3.624.48-1.008 1.144-1.784 1.992-2.328.864-.544 1.864-.816 3-.816ZM124.6 37.6c-1.008 0-1.808.328-2.4.984-1.05 1.167.328 2.688 1.897 2.688h1.662c1.083 0 2.038-.918 1.625-1.92a2.712 2.712 0 0 0-1.032-1.272c-.448-.32-1.032-.48-1.752-.48ZM134.259 36.112c.583 0 1.056.473 1.056 1.056v1.62a2.676 2.676 0 0 0 2.676 2.676h1.632a2.676 2.676 0 0 0 2.676-2.676v-1.62a1.056 1.056 0 0 1 2.112 0V47.92a1.056 1.056 0 0 1-2.112 0v-1.812a2.868 2.868 0 0 0-2.868-2.868h-1.248a2.868 2.868 0 0 0-2.868 2.868v1.812a1.056 1.056 0 0 1-2.112 0V37.168c0-.583.473-1.056 1.056-1.056ZM149.54 36.112c.584 0 1.056.473 1.056 1.056V47.92a1.056 1.056 0 1 1-2.112 0V37.168c0-.583.473-1.056 1.056-1.056Zm.024-4.824c.32 0 .6.112.84.336.256.208.384.544.384 1.008 0 .448-.128.784-.384 1.008-.24.224-.52.336-.84.336-.352 0-.648-.112-.888-.336-.24-.224-.36-.56-.36-1.008 0-.464.12-.8.36-1.008.24-.224.536-.336.888-.336ZM164.005 30.784c.583 0 1.058.505.896 1.066a3.808 3.808 0 0 1-.413.95c-.32.544-.8.952-1.44 1.224-.64.272-1.472.408-2.496.408-1.04 0-1.88-.136-2.52-.408-.624-.272-1.08-.672-1.368-1.2a4.253 4.253 0 0 1-.365-.986c-.137-.559.329-1.054.905-1.054.51 0 .914.396 1.06.885.117.393.288.682.512.867.384.288.992.432 1.824.432.736 0 1.312-.152 1.728-.456.256-.19.451-.47.583-.84.174-.486.578-.888 1.094-.888Zm-7.341 13.176c0 .144-.008.352-.024.624 0 .256-.008.536-.024.84l-.048.84c-.01.157.204.23.289.097l6.057-9.476a1.675 1.675 0 0 1 3.086.902v10.205a.984.984 0 0 1-1.968 0v-7.608l.048-1.224c.009-.243-.324-.35-.455-.145l-5.839 9.179a1.69 1.69 0 0 1-3.114-.907V37.108a.996.996 0 0 1 1.992 0v6.852Z"/></mask><path d="M72.559 19.976a3 3 0 0 1-3 3H55.35a3 3 0 0 1-3-3V6.92a1.08 1.08 0 1 1 2.16 0v11.136a3 3 0 0 0 3 3h.84a3 3 0 0 0 3-3V6.92a1.08 1.08 0 1 1 2.16 0v11.136a3 3 0 0 0 3 3h.864a3 3 0 0 0 3-3V6.932a1.092 1.092 0 1 1 2.184 0v13.044ZM84.304 10.404a.861.861 0 1 1 1.29 1.14l-2.655 2.991a2.658 2.658 0 0 0 .005 3.534l3.02 3.386a.913.913 0 1 1-1.363 1.215l-2.392-2.689c-1.1-1.236-3.144-.458-3.144 1.196v.743a1.056 1.056 0 0 1-2.112 0V11.168a1.056 1.056 0 0 1 2.112 0v.655c0 1.576 1.952 2.313 2.994 1.13l2.245-2.549ZM90.712 10.112c.584 0 1.056.473 1.056 1.056V21.92a1.056 1.056 0 1 1-2.112 0V11.168c0-.583.473-1.056 1.056-1.056Zm.024-4.824c.32 0 .6.112.84.336.256.208.384.544.384 1.008 0 .448-.128.784-.384 1.008-.24.224-.52.336-.84.336-.352 0-.648-.112-.888-.336-.24-.224-.36-.56-.36-1.008 0-.464.12-.8.36-1.008.24-.224.536-.336.888-.336ZM105.636 21.908a1.068 1.068 0 1 1-2.136 0v-8.073a1.97 1.97 0 0 0-1.971-1.97c-1.028 0-1.88.79-1.983 1.813a52.913 52.913 0 0 1-.438 3.394c-.24 1.424-.544 2.584-.912 3.48-.368.896-.808 1.552-1.32 1.968a2.768 2.768 0 0 1-1.8.624c-.208 0-.416-.016-.624-.048h-.01c-.298-.027-.47-.309-.47-.608v-.775c0-.158.156-.271.312-.249.112.016.224.024.336.024.352 0 .672-.144.96-.432.288-.288.544-.728.768-1.32.24-.592.456-1.336.648-2.232.192-.912.36-1.984.504-3.216.052-.444.102-.909.15-1.394.153-1.566 1.452-2.782 3.025-2.782h1.961a3 3 0 0 1 3 3v8.796ZM115.647 15.392c1.12 0 2.048.136 2.784.408.736.272 1.288.68 1.656 1.224.384.528.576 1.2.576 2.016 0 .8-.184 1.496-.552 2.088-.352.592-.904 1.048-1.656 1.368-.752.32-1.72.48-2.904.48h-2.832a3 3 0 0 1-3-3v-8.808a1.056 1.056 0 0 1 2.112 0v1.584a2.64 2.64 0 0 0 2.64 2.64h1.176Zm2.904 3.768c0-.784-.28-1.312-.84-1.584-.544-.288-1.312-.432-2.304-.432h-1.512a2.064 2.064 0 1 0 0 4.128h1.56c.896 0 1.632-.16 2.208-.48.592-.32.888-.864.888-1.632ZM125.025 10.112c.583 0 1.056.473 1.056 1.056v1.62a2.676 2.676 0 0 0 2.676 2.676h1.632a2.676 2.676 0 0 0 2.676-2.676v-1.62a1.056 1.056 0 0 1 2.112 0V21.92a1.056 1.056 0 0 1-2.112 0v-1.812a2.868 2.868 0 0 0-2.868-2.868h-1.248a2.868 2.868 0 0 0-2.868 2.868v1.812a1.056 1.056 0 0 1-2.112 0V11.168c0-.583.473-1.056 1.056-1.056ZM141.242 17.96c0 .144-.008.352-.024.624 0 .256-.008.536-.024.84l-.048.84c-.01.157.204.23.289.097l6.057-9.476a1.675 1.675 0 0 1 3.086.902v10.205a.984.984 0 1 1-1.968 0v-7.608l.048-1.224c.009-.244-.324-.35-.455-.145l-5.839 9.179a1.69 1.69 0 0 1-3.114-.907V11.108a.996.996 0 0 1 1.992 0v6.852ZM164.005 4.784c.583 0 1.058.505.896 1.066a3.807 3.807 0 0 1-.413.95c-.32.544-.8.952-1.44 1.224-.64.272-1.472.408-2.496.408-1.04 0-1.88-.136-2.52-.408-.624-.272-1.08-.672-1.368-1.2a4.252 4.252 0 0 1-.365-.986c-.137-.559.329-1.054.905-1.054.51 0 .914.396 1.06.885.117.393.288.682.512.867.384.288.992.432 1.824.432.736 0 1.312-.152 1.728-.456.256-.19.451-.47.583-.84.174-.486.578-.888 1.094-.888Zm-7.341 13.176c0 .144-.008.352-.024.624 0 .256-.008.536-.024.84l-.048.84c-.01.157.204.23.289.097l6.057-9.476a1.675 1.675 0 0 1 3.086.902v10.205a.984.984 0 0 1-1.968 0v-7.608l.048-1.224c.009-.244-.324-.35-.455-.145l-5.839 9.179a1.69 1.69 0 0 1-3.114-.907V11.108a.996.996 0 0 1 1.992 0v6.852ZM116.468 36.112a.888.888 0 0 1 0 1.776h-1.98a2.868 2.868 0 0 0-2.868 2.868v7.164a1.056 1.056 0 0 1-2.112 0v-8.808a3 3 0 0 1 3-3h3.96ZM124.624 35.872c1.104 0 2.048.24 2.832.72.8.48 1.408 1.16 1.824 2.04.432.864.648 1.88.648 3.048 0 .703-.569 1.272-1.272 1.272h-4.469c-1.683 0-3.224 1.526-2.287 2.924.099.147.207.284.324.412.72.752 1.72 1.128 3 1.128.816 0 1.536-.072 2.16-.216.251-.063.504-.135.76-.217.582-.188 1.208.225 1.208.837a.81.81 0 0 1-.515.766c-.48.182-.957.32-1.429.414-.64.144-1.4.216-2.28.216-1.216 0-2.296-.248-3.24-.744-.928-.496-1.656-1.232-2.184-2.208-.512-.992-.768-2.2-.768-3.624 0-1.408.232-2.616.696-3.624.48-1.008 1.144-1.784 1.992-2.328.864-.544 1.864-.816 3-.816ZM124.6 37.6c-1.008 0-1.808.328-2.4.984-1.05 1.167.328 2.688 1.897 2.688h1.662c1.083 0 2.038-.918 1.625-1.92a2.712 2.712 0 0 0-1.032-1.272c-.448-.32-1.032-.48-1.752-.48ZM134.259 36.112c.583 0 1.056.473 1.056 1.056v1.62a2.676 2.676 0 0 0 2.676 2.676h1.632a2.676 2.676 0 0 0 2.676-2.676v-1.62a1.056 1.056 0 0 1 2.112 0V47.92a1.056 1.056 0 0 1-2.112 0v-1.812a2.868 2.868 0 0 0-2.868-2.868h-1.248a2.868 2.868 0 0 0-2.868 2.868v1.812a1.056 1.056 0 0 1-2.112 0V37.168c0-.583.473-1.056 1.056-1.056ZM149.54 36.112c.584 0 1.056.473 1.056 1.056V47.92a1.056 1.056 0 1 1-2.112 0V37.168c0-.583.473-1.056 1.056-1.056Zm.024-4.824c.32 0 .6.112.84.336.256.208.384.544.384 1.008 0 .448-.128.784-.384 1.008-.24.224-.52.336-.84.336-.352 0-.648-.112-.888-.336-.24-.224-.36-.56-.36-1.008 0-.464.12-.8.36-1.008.24-.224.536-.336.888-.336ZM164.005 30.784c.583 0 1.058.505.896 1.066a3.808 3.808 0 0 1-.413.95c-.32.544-.8.952-1.44 1.224-.64.272-1.472.408-2.496.408-1.04 0-1.88-.136-2.52-.408-.624-.272-1.08-.672-1.368-1.2a4.253 4.253 0 0 1-.365-.986c-.137-.559.329-1.054.905-1.054.51 0 .914.396 1.06.885.117.393.288.682.512.867.384.288.992.432 1.824.432.736 0 1.312-.152 1.728-.456.256-.19.451-.47.583-.84.174-.486.578-.888 1.094-.888Zm-7.341 13.176c0 .144-.008.352-.024.624 0 .256-.008.536-.024.84l-.048.84c-.01.157.204.23.289.097l6.057-9.476a1.675 1.675 0 0 1 3.086.902v10.205a.984.984 0 0 1-1.968 0v-7.608l.048-1.224c.009-.243-.324-.35-.455-.145l-5.839 9.179a1.69 1.69 0 0 1-3.114-.907V37.108a.996.996 0 0 1 1.992 0v6.852Z" fill="#0C0C0C"/><path d="M72.559 19.976a3 3 0 0 1-3 3H55.35a3 3 0 0 1-3-3V6.92a1.08 1.08 0 1 1 2.16 0v11.136a3 3 0 0 0 3 3h.84a3 3 0 0 0 3-3V6.92a1.08 1.08 0 1 1 2.16 0v11.136a3 3 0 0 0 3 3h.864a3 3 0 0 0 3-3V6.932a1.092 1.092 0 1 1 2.184 0v13.044ZM84.304 10.404a.861.861 0 1 1 1.29 1.14l-2.655 2.991a2.658 2.658 0 0 0 .005 3.534l3.02 3.386a.913.913 0 1 1-1.363 1.215l-2.392-2.689c-1.1-1.236-3.144-.458-3.144 1.196v.743a1.056 1.056 0 0 1-2.112 0V11.168a1.056 1.056 0 0 1 2.112 0v.655c0 1.576 1.952 2.313 2.994 1.13l2.245-2.549ZM90.712 10.112c.584 0 1.056.473 1.056 1.056V21.92a1.056 1.056 0 1 1-2.112 0V11.168c0-.583.473-1.056 1.056-1.056Zm.024-4.824c.32 0 .6.112.84.336.256.208.384.544.384 1.008 0 .448-.128.784-.384 1.008-.24.224-.52.336-.84.336-.352 0-.648-.112-.888-.336-.24-.224-.36-.56-.36-1.008 0-.464.12-.8.36-1.008.24-.224.536-.336.888-.336ZM105.636 21.908a1.068 1.068 0 1 1-2.136 0v-8.073a1.97 1.97 0 0 0-1.971-1.97c-1.028 0-1.88.79-1.983 1.813a52.913 52.913 0 0 1-.438 3.394c-.24 1.424-.544 2.584-.912 3.48-.368.896-.808 1.552-1.32 1.968a2.768 2.768 0 0 1-1.8.624c-.208 0-.416-.016-.624-.048h-.01c-.298-.027-.47-.309-.47-.608v-.775c0-.158.156-.271.312-.249.112.016.224.024.336.024.352 0 .672-.144.96-.432.288-.288.544-.728.768-1.32.24-.592.456-1.336.648-2.232.192-.912.36-1.984.504-3.216.052-.444.102-.909.15-1.394.153-1.566 1.452-2.782 3.025-2.782h1.961a3 3 0 0 1 3 3v8.796ZM115.647 15.392c1.12 0 2.048.136 2.784.408.736.272 1.288.68 1.656 1.224.384.528.576 1.2.576 2.016 0 .8-.184 1.496-.552 2.088-.352.592-.904 1.048-1.656 1.368-.752.32-1.72.48-2.904.48h-2.832a3 3 0 0 1-3-3v-8.808a1.056 1.056 0 0 1 2.112 0v1.584a2.64 2.64 0 0 0 2.64 2.64h1.176Zm2.904 3.768c0-.784-.28-1.312-.84-1.584-.544-.288-1.312-.432-2.304-.432h-1.512a2.064 2.064 0 1 0 0 4.128h1.56c.896 0 1.632-.16 2.208-.48.592-.32.888-.864.888-1.632ZM125.025 10.112c.583 0 1.056.473 1.056 1.056v1.62a2.676 2.676 0 0 0 2.676 2.676h1.632a2.676 2.676 0 0 0 2.676-2.676v-1.62a1.056 1.056 0 0 1 2.112 0V21.92a1.056 1.056 0 0 1-2.112 0v-1.812a2.868 2.868 0 0 0-2.868-2.868h-1.248a2.868 2.868 0 0 0-2.868 2.868v1.812a1.056 1.056 0 0 1-2.112 0V11.168c0-.583.473-1.056 1.056-1.056ZM141.242 17.96c0 .144-.008.352-.024.624 0 .256-.008.536-.024.84l-.048.84c-.01.157.204.23.289.097l6.057-9.476a1.675 1.675 0 0 1 3.086.902v10.205a.984.984 0 1 1-1.968 0v-7.608l.048-1.224c.009-.244-.324-.35-.455-.145l-5.839 9.179a1.69 1.69 0 0 1-3.114-.907V11.108a.996.996 0 0 1 1.992 0v6.852ZM164.005 4.784c.583 0 1.058.505.896 1.066a3.807 3.807 0 0 1-.413.95c-.32.544-.8.952-1.44 1.224-.64.272-1.472.408-2.496.408-1.04 0-1.88-.136-2.52-.408-.624-.272-1.08-.672-1.368-1.2a4.252 4.252 0 0 1-.365-.986c-.137-.559.329-1.054.905-1.054.51 0 .914.396 1.06.885.117.393.288.682.512.867.384.288.992.432 1.824.432.736 0 1.312-.152 1.728-.456.256-.19.451-.47.583-.84.174-.486.578-.888 1.094-.888Zm-7.341 13.176c0 .144-.008.352-.024.624 0 .256-.008.536-.024.84l-.048.84c-.01.157.204.23.289.097l6.057-9.476a1.675 1.675 0 0 1 3.086.902v10.205a.984.984 0 0 1-1.968 0v-7.608l.048-1.224c.009-.244-.324-.35-.455-.145l-5.839 9.179a1.69 1.69 0 0 1-3.114-.907V11.108a.996.996 0 0 1 1.992 0v6.852ZM116.468 36.112a.888.888 0 0 1 0 1.776h-1.98a2.868 2.868 0 0 0-2.868 2.868v7.164a1.056 1.056 0 0 1-2.112 0v-8.808a3 3 0 0 1 3-3h3.96ZM124.624 35.872c1.104 0 2.048.24 2.832.72.8.48 1.408 1.16 1.824 2.04.432.864.648 1.88.648 3.048 0 .703-.569 1.272-1.272 1.272h-4.469c-1.683 0-3.224 1.526-2.287 2.924.099.147.207.284.324.412.72.752 1.72 1.128 3 1.128.816 0 1.536-.072 2.16-.216.251-.063.504-.135.76-.217.582-.188 1.208.225 1.208.837a.81.81 0 0 1-.515.766c-.48.182-.957.32-1.429.414-.64.144-1.4.216-2.28.216-1.216 0-2.296-.248-3.24-.744-.928-.496-1.656-1.232-2.184-2.208-.512-.992-.768-2.2-.768-3.624 0-1.408.232-2.616.696-3.624.48-1.008 1.144-1.784 1.992-2.328.864-.544 1.864-.816 3-.816ZM124.6 37.6c-1.008 0-1.808.328-2.4.984-1.05 1.167.328 2.688 1.897 2.688h1.662c1.083 0 2.038-.918 1.625-1.92a2.712 2.712 0 0 0-1.032-1.272c-.448-.32-1.032-.48-1.752-.48ZM134.259 36.112c.583 0 1.056.473 1.056 1.056v1.62a2.676 2.676 0 0 0 2.676 2.676h1.632a2.676 2.676 0 0 0 2.676-2.676v-1.62a1.056 1.056 0 0 1 2.112 0V47.92a1.056 1.056 0 0 1-2.112 0v-1.812a2.868 2.868 0 0 0-2.868-2.868h-1.248a2.868 2.868 0 0 0-2.868 2.868v1.812a1.056 1.056 0 0 1-2.112 0V37.168c0-.583.473-1.056 1.056-1.056ZM149.54 36.112c.584 0 1.056.473 1.056 1.056V47.92a1.056 1.056 0 1 1-2.112 0V37.168c0-.583.473-1.056 1.056-1.056Zm.024-4.824c.32 0 .6.112.84.336.256.208.384.544.384 1.008 0 .448-.128.784-.384 1.008-.24.224-.52.336-.84.336-.352 0-.648-.112-.888-.336-.24-.224-.36-.56-.36-1.008 0-.464.12-.8.36-1.008.24-.224.536-.336.888-.336ZM164.005 30.784c.583 0 1.058.505.896 1.066a3.808 3.808 0 0 1-.413.95c-.32.544-.8.952-1.44 1.224-.64.272-1.472.408-2.496.408-1.04 0-1.88-.136-2.52-.408-.624-.272-1.08-.672-1.368-1.2a4.253 4.253 0 0 1-.365-.986c-.137-.559.329-1.054.905-1.054.51 0 .914.396 1.06.885.117.393.288.682.512.867.384.288.992.432 1.824.432.736 0 1.312-.152 1.728-.456.256-.19.451-.47.583-.84.174-.486.578-.888 1.094-.888Zm-7.341 13.176c0 .144-.008.352-.024.624 0 .256-.008.536-.024.84l-.048.84c-.01.157.204.23.289.097l6.057-9.476a1.675 1.675 0 0 1 3.086.902v10.205a.984.984 0 0 1-1.968 0v-7.608l.048-1.224c.009-.243-.324-.35-.455-.145l-5.839 9.179a1.69 1.69 0 0 1-3.114-.907V37.108a.996.996 0 0 1 1.992 0v6.852Z" stroke="#0C0C0C" mask="url('#path-69-outside-1_701_13061')"/></svg>