<!-- Generated by IcoMoon.io -->
<svg id="delete" version="1.1" xmlns="http://www.w3.org/2000/svg" viewBox="0 0 32 32">
<title>delete</title>
<path fill="#4c39e3" d="M12.392 6c0-0.368 0.298-0.667 0.667-0.667h7.216c0.368 0 0.667 0.298 0.667 0.667v2h-8.549v-2zM11.059 8h-5.686c-0.368 0-0.667 0.298-0.667 0.667s0.298 0.667 0.667 0.667h22.588c0.368 0 0.667-0.298 0.667-0.667s-0.299-0.667-0.667-0.667h-5.686v-2c0-1.105-0.895-2-2-2h-7.216c-1.105 0-2 0.895-2 2v2z"></path>
<path fill="none" stroke="#4c39e3" stroke-linejoin="miter" stroke-linecap="round" stroke-miterlimit="4" stroke-width="1.3333" d="M8 9.333v18c0 0.736 0.597 1.333 1.333 1.333h14.667c0.736 0 1.333-0.597 1.333-1.333v-18.667"></path>
<path fill="none" stroke="#4c39e3" stroke-linejoin="miter" stroke-linecap="round" stroke-miterlimit="4" stroke-width="1.3333" d="M12 13.333v13.333"></path>
<path fill="none" stroke="#4c39e3" stroke-linejoin="miter" stroke-linecap="round" stroke-miterlimit="4" stroke-width="1.3333" d="M21.333 13.333v13.333"></path>
<path fill="none" stroke="#4c39e3" stroke-linejoin="miter" stroke-linecap="round" stroke-miterlimit="4" stroke-width="1.3333" d="M16.667 13.333v13.333"></path>
</svg>
