<!-- Generated by IcoMoon.io -->
<svg id="edit" version="1.1" xmlns="http://www.w3.org/2000/svg" viewBox="0 0 32 32">
<title>edit</title>
<path fill="none" stroke="#4c39e3" stroke-linejoin="miter" stroke-linecap="round" stroke-miterlimit="4" stroke-width="1.3333" d="M20.916 4.937l-13.461 13.461c-0.108 0.108-0.191 0.237-0.245 0.38l-2.080 5.546c-0.041 0.11 0.069 0.216 0.177 0.169l4.811-2.062c0.132-0.057 0.252-0.14 0.351-0.244l13.473-14.115M20.916 4.937l1.799-1.799c0.26-0.26 0.682-0.26 0.943 0l2.096 2.096c0.256 0.256 0.261 0.67 0.011 0.932l-1.821 1.908M20.916 4.937l3.027 3.136"></path>
<path fill="none" stroke="#4c39e3" stroke-linejoin="miter" stroke-linecap="round" stroke-miterlimit="4" stroke-width="1.3333" d="M4.685 25.037c-1.257 5.327 7.349 1.813 12.923-0.625 1.030-0.451 1.692 0.625 1.115 1.59-2.875 4.807 9.51 1.39 9.51 1.39"></path>
</svg>
