<svg id="logo" viewBox="0 0 170 54" fill="none" xmlns="http://www.w3.org/2000/svg">
<rect width="169.65" height="51.9999" transform="translate(0.350586 1)" fill="white"/>
<path d="M42.9035 40.3145L47.5234 35.7456L37.4025 25.7363L32.7825 30.3053L42.9035 40.3145Z" fill="white"/>
<path fill-rule="evenodd" clip-rule="evenodd" d="M42.9035 40.3145L47.5234 35.7456L37.4025 25.7363L32.7825 30.3053L42.9035 40.3145V40.3145Z" stroke="#4C39E3" stroke-width="0.7" stroke-linecap="round" stroke-linejoin="round"/>
<path d="M58.6719 51.3395C60.947 49.0894 60.904 45.4284 58.5766 43.2313L46.1103 31.4629L38.5734 38.9166L50.4732 51.2453C52.6948 53.547 56.3967 53.5896 58.6719 51.3395Z" fill="#F6FEFF"/>
<mask id="mask0_701_13061" style="mask-type:luminance" maskUnits="userSpaceOnUse" x="38" y="31" width="23" height="22">
<path fill-rule="evenodd" clip-rule="evenodd" d="M58.6719 51.3395C60.947 49.0894 60.904 45.4284 58.5766 43.2313L46.1103 31.4629L38.5734 38.9166L50.4732 51.2453C52.6948 53.547 56.3967 53.5896 58.6719 51.3395Z" fill="white"/>
</mask>
<g mask="url(#mask0_701_13061)">
<path d="M37.2259 36.8818C55.4143 56.003 57.4125 47.3545 61.4774 44.2823C65.5424 41.2102 62.786 55.4089 62.786 55.4089L55.7345 64.26L39.6613 50.7438L38.0905 40.7615" fill="#E9FCFF"/>
</g>
<path fill-rule="evenodd" clip-rule="evenodd" d="M58.6719 51.3395V51.3395C60.947 49.0894 60.904 45.4284 58.5766 43.2313L46.1103 31.4629L38.5734 38.9166L50.4732 51.2452C52.6948 53.547 56.3967 53.5896 58.6719 51.3395Z" stroke="#4C39E3" stroke-width="0.7" stroke-linecap="round" stroke-linejoin="round"/>
<path fill-rule="evenodd" clip-rule="evenodd" d="M38.5712 6.19496C31.5673 -0.731609 20.2118 -0.731697 13.2078 6.19496C6.20383 13.1216 6.20392 24.3519 13.2078 31.2784C20.2118 38.2051 31.5673 38.2052 38.5713 31.2785C45.5753 24.3519 45.5752 13.1216 38.5712 6.19496ZM35.1847 9.54341C40.3186 14.6207 40.3186 22.8525 35.1847 27.9298C30.0508 33.007 21.7271 33.007 16.5932 27.9298C11.4592 22.8525 11.4592 14.6207 16.5932 9.54341C21.7271 4.46615 30.0508 4.46615 35.1847 9.54341Z" fill="#E9FCFF"/>
<path d="M13.2078 6.19496L13.4539 6.44382V6.44382L13.2078 6.19496ZM38.5712 6.19496L38.8173 5.9461H38.8173L38.5712 6.19496ZM13.2078 31.2784L13.4539 31.0296L13.2078 31.2784ZM35.1847 27.9298L34.9386 27.6809L35.1847 27.9298ZM12.9617 5.9461C20.102 -1.11541 31.6771 -1.11532 38.8173 5.9461L38.3251 6.44382C31.4576 -0.347896 20.3215 -0.347981 13.4539 6.44382L12.9617 5.9461ZM38.8173 5.9461C45.9598 13.0097 45.9599 24.4637 38.8174 31.5274L38.3252 31.0296C45.1906 24.24 45.1905 13.2335 38.3251 6.44382L38.8173 5.9461ZM38.8174 31.5274C31.6771 38.5889 20.102 38.5888 12.9617 31.5273L13.4539 31.0296C20.3215 37.8214 31.4576 37.8214 38.3252 31.0296L38.8174 31.5274ZM12.9617 31.5273C5.81929 24.4637 5.8192 13.0098 12.9617 5.9461L13.4539 6.44382C6.58846 13.2335 6.58855 24.24 13.4539 31.0296L12.9617 31.5273ZM34.9386 27.6809C39.934 22.7406 39.934 14.7325 34.9386 9.79226L35.4308 9.29455C40.7033 14.5088 40.7033 22.9644 35.4308 28.1786L34.9386 27.6809ZM34.9386 9.79226C29.941 4.84987 21.8368 4.84986 16.8393 9.79226L16.347 9.29455C21.6173 4.08243 30.1605 4.08244 35.4308 9.29455L34.9386 9.79226ZM16.8393 9.79226C11.8439 14.7325 11.8439 22.7406 16.8393 27.6809L16.347 28.1786C11.0746 22.9644 11.0746 14.5088 16.347 9.29455L16.8393 9.79226ZM16.8393 27.6809C21.8368 32.6233 29.941 32.6233 34.9386 27.6809L35.4308 28.1786C30.1605 33.3907 21.6173 33.3907 16.347 28.1786L16.8393 27.6809Z" fill="#4C39E3"/>
<path d="M33.158 9.23233L33.361 8.10694C33.361 8.10694 35.3753 7.2612 35.9325 9.99535C36.4897 12.7295 34.7966 12.6659 36.1468 13.874C37.497 15.0821 39.04 16.7353 37.5291 17.6891C36.0182 18.6429 29.7816 17.085 29.7816 17.085L30.9068 12.9908L33.158 9.23233Z" fill="#21273D" stroke="#21273D" stroke-width="0.7" stroke-linecap="round" stroke-linejoin="round"/>
<path d="M34.8003 11.9737L35.2646 15.5392L32.4259 15.3481L32.9221 11.3096L34.8003 11.9737Z" fill="white"/>
<mask id="mask1_701_13061" style="mask-type:luminance" maskUnits="userSpaceOnUse" x="32" y="11" width="4" height="5">
<path fill-rule="evenodd" clip-rule="evenodd" d="M34.8003 11.9737L35.2646 15.5392L32.4259 15.3481L32.9221 11.3096L34.8003 11.9737Z" fill="white"/>
</mask>
<g mask="url(#mask1_701_13061)">
<path d="M34.9421 14.7337C34.4114 13.8492 34.1271 13.3464 34.1271 13.3464L34.9705 13.1191C34.9705 13.1191 35.4728 15.6182 34.9421 14.7337Z" fill="white"/>
</g>
<path fill-rule="evenodd" clip-rule="evenodd" d="M34.8003 11.9737L35.2646 15.5392L32.4259 15.3481L32.9221 11.3096L34.8003 11.9737V11.9737Z" stroke="#21273D" stroke-width="0.7" stroke-linecap="round" stroke-linejoin="round"/>
<path d="M33.3784 11.6343L32.3506 9.1221L33.5475 9C34.513 9.07336 35.0367 9.10274 35.5605 9.74057L36.209 10.9585C36.4067 11.3289 36.397 11.7485 36.1822 12.1128C35.9674 12.4771 35.5678 12.7516 35.0832 12.8681L34.53 13" fill="white"/>
<mask id="mask2_701_13061" style="mask-type:luminance" maskUnits="userSpaceOnUse" x="31" y="8" width="5" height="6">
<path fill-rule="evenodd" clip-rule="evenodd" d="M32.9549 11.7803L31.9471 8.72374L33.1207 8.5752C34.0673 8.66445 34.5809 8.7002 35.0945 9.47622L35.7303 10.9581C35.9242 11.4087 35.9146 11.9192 35.704 12.3624C35.4934 12.8056 35.1016 13.1397 34.6264 13.2813L34.084 13.4419" fill="white"/>
</mask>
<g mask="url(#mask2_701_13061)">
<path d="M35.3924 10.3496C35.3648 10.3506 35.3434 10.3756 35.3446 10.4054L35.3482 10.4973C35.3493 10.5271 35.3726 10.5504 35.4002 10.5494C35.4135 10.5489 35.426 10.5427 35.4349 10.5322C35.4439 10.5218 35.4486 10.5078 35.4481 10.4935L35.4445 10.4017C35.4433 10.3718 35.42 10.3485 35.3924 10.3496L35.3924 10.3496Z" fill="#21273D"/>
<rect width="0.1" height="0.2" rx="0.05" transform="matrix(-0.999278 0.0379903 0.0390932 0.999236 34.335 10.3418)" fill="#21273D"/>
<path d="M34.7591 10.8594C34.7821 11.1282 34.788 11.2075 34.788 11.2075C35.2343 11.2522 34.7726 11.5847 34.7726 11.5847" stroke="#21273D" stroke-width="0.1" stroke-linecap="round" stroke-linejoin="round"/>
<path d="M34.4927 11.6123C34.5026 11.705 34.5777 11.778 34.6719 11.7865" stroke="#21273D" stroke-width="0.1" stroke-linecap="round" stroke-linejoin="round"/>
</g>
<path d="M33.3784 11.2929L32.3506 8.15262L33.5475 8C34.513 8.0917 35.0367 8.12843 35.5605 8.92571L36.209 10.4482C36.4067 10.9111 36.397 11.4356 36.1822 11.891C35.9674 12.3463 35.5678 12.6896 35.0832 12.8351L34.53 13" stroke="#21273D" stroke-width="0.7" stroke-linecap="round" stroke-linejoin="round"/>
<path d="M33.6823 8.21436C35.804 11.224 31.2041 11.3704 32.7188 15.7004C33.9979 19.3568 33.7363 20.1057 29.546 18.0488C26.6099 16.6075 31.0677 6.87907 33.6823 8.21436Z" fill="#21273D" stroke="#21273D" stroke-width="0.7" stroke-linecap="round" stroke-linejoin="round"/>
<path d="M33.5801 11.5025C33.5275 11.4424 33.4706 11.386 33.41 11.3337C32.9495 10.9361 32.3685 10.849 32.1122 11.1392C31.8559 11.4295 32.0214 11.9872 32.4819 12.3848C32.5911 12.4798 32.7125 12.5601 32.8429 12.6238" fill="white"/>
<path d="M33.5801 11.5025C33.5275 11.4424 33.4706 11.386 33.41 11.3337C32.9495 10.9361 32.3685 10.849 32.1122 11.1392C31.8559 11.4295 32.0214 11.9872 32.4819 12.3848C32.5911 12.4798 32.7125 12.5601 32.8429 12.6238" stroke="#21273D" stroke-width="0.7" stroke-linecap="round" stroke-linejoin="round"/>
<path d="M23.9074 12.3949C24.3946 11.358 24.5694 9.39809 24.6392 9.27538C24.7908 9.00872 26.6986 7.84126 26.9073 7.83507C27.1159 7.82889 27.2104 8.07253 26.1099 9.03006C26.1099 9.03006 26.6732 9.35732 26.6153 9.56989C26.5838 9.68529 25.3785 12.7838 25.3785 12.7838L23.9074 12.3949Z" fill="white"/>
<mask id="mask3_701_13061" style="mask-type:luminance" maskUnits="userSpaceOnUse" x="23" y="7" width="5" height="6">
<path fill-rule="evenodd" clip-rule="evenodd" d="M23.9083 12.3949C24.3956 11.358 24.5703 9.39809 24.6401 9.27538C24.7918 9.00872 26.6996 7.84126 26.9083 7.83507C27.1169 7.82889 27.2113 8.07253 26.1109 9.03006C26.1109 9.03006 26.6742 9.35732 26.6162 9.56989C26.5848 9.68529 25.3795 12.7838 25.3795 12.7838L23.9083 12.3949Z" fill="white"/>
</mask>
<g mask="url(#mask3_701_13061)">
<path d="M27.7233 11.9494C25.7492 10.1427 24.4909 10.1396 24.4909 10.1396L24.4331 11.9494L28.1104 12.1559" fill="white"/>
</g>
<path fill-rule="evenodd" clip-rule="evenodd" d="M23.9074 12.3949C24.3946 11.358 24.5694 9.39809 24.6392 9.27538C24.7908 9.00872 26.6986 7.84126 26.9073 7.83507C27.1159 7.82889 27.2104 8.07253 26.1099 9.03006C26.1099 9.03006 26.6732 9.35732 26.6153 9.56989C26.5838 9.68529 25.3785 12.7838 25.3785 12.7838L23.9074 12.3949Z" stroke="#21273D" stroke-width="0.7" stroke-linecap="round" stroke-linejoin="round"/>
<path d="M29.4522 15.2002C29.3164 15.1106 24.7598 15.7512 24.7598 15.7512C24.7598 15.7512 26.4487 11.5414 26.2201 11.2732C25.3261 10.2246 23.9108 9.97461 23.9108 9.97461L21.6198 16.0321C21.1432 17.2923 21.8963 18.6796 23.2218 18.983L30.4395 18.7228L29.4522 15.2002Z" fill="#B4F5FF"/>
<path fill-rule="evenodd" clip-rule="evenodd" d="M29.4522 15.2002C29.3164 15.1106 24.7598 15.7512 24.7598 15.7512C24.7598 15.7512 26.4487 11.5414 26.2201 11.2732C25.3261 10.2246 23.9108 9.97461 23.9108 9.97461L21.6198 16.0321C21.1432 17.2923 21.8963 18.6796 23.2218 18.983L30.4395 18.7228L29.4522 15.2002Z" stroke="#21273D" stroke-width="0.7" stroke-linecap="round" stroke-linejoin="round"/>
<path d="M10.0997 30.1564L8.5284 28.4043L11.1434 25.7783L12.7998 27.6254L10.0997 30.1564Z" fill="white" stroke="#21273D" stroke-width="0.7" stroke-linecap="round" stroke-linejoin="round"/>
<path d="M4.35021 26.2282C4.80552 25.7552 5.50675 25.6984 6.02023 26.0918C7.15396 26.9603 8.54177 27.8584 9.10152 27.4948L10.9512 29.5344L9.30019 31.2497C9.22468 31.3282 9.11893 31.3716 9.00916 31.369C8.8994 31.3663 8.7959 31.318 8.72433 31.2359L4.35021 26.2282Z" fill="#21273D" stroke="#21273D" stroke-width="0.7" stroke-linecap="round" stroke-linejoin="round"/>
<path d="M13.1732 29.9684C12.2888 31.0644 9.8281 26.3736 9.8281 26.3736L19.3588 17.6644C20.0326 17.1064 21.0332 17.1732 21.6246 17.8155L33.3672 26.8514L26.1341 27.9633L24.8997 27.8115L20.1829 23.3286C20.1829 23.3286 13.7667 29.233 13.1732 29.9684Z" fill="#21273D"/>
<mask id="mask4_701_13061" style="mask-type:luminance" maskUnits="userSpaceOnUse" x="9" y="17" width="25" height="14">
<path fill-rule="evenodd" clip-rule="evenodd" d="M13.1732 29.9674C12.2888 31.0634 9.8281 26.3727 9.8281 26.3727L19.3588 17.6634C20.0326 17.1055 21.0332 17.1722 21.6246 17.8145L33.3672 26.8504L26.1341 27.9624L24.8997 27.8105L20.1829 23.3276C20.1829 23.3276 13.7667 29.232 13.1732 29.9674Z" fill="white"/>
</mask>
<g mask="url(#mask4_701_13061)">
<ellipse cx="2.5919" cy="2.56329" rx="2.5919" ry="2.56329" transform="matrix(-1 0 0 1 22.3096 13.6318)" fill="white"/>
<path d="M10.9541 23.5156C9.99333 24.5535 14.4834 29.951 14.4834 29.951L10.9541 23.5156Z" fill="#21273D"/>
<path d="M10.9541 23.5156C9.99333 24.5535 14.4834 29.951 14.4834 29.951" stroke="#21273D" stroke-width="0.7" stroke-linecap="round" stroke-linejoin="round"/>
</g>
<path fill-rule="evenodd" clip-rule="evenodd" d="M13.1732 29.9684C12.2888 31.0644 9.8281 26.3736 9.8281 26.3736L19.3588 17.6644C20.0326 17.1064 21.0332 17.1732 21.6246 17.8155L33.3672 26.8514L26.1341 27.9633L24.8997 27.8115L20.1829 23.3286C20.1829 23.3286 13.7667 29.233 13.1732 29.9684Z" fill="#FEC204" stroke="#21273D" stroke-width="0.7" stroke-linecap="round" stroke-linejoin="round"/>
<path d="M19.5215 48.8893L17.1243 48.8213L16.4283 43.814L19.1674 42.0762L19.5215 48.8893Z" fill="white"/>
<mask id="mask5_701_13061" style="mask-type:luminance" maskUnits="userSpaceOnUse" x="16" y="42" width="4" height="7">
<path fill-rule="evenodd" clip-rule="evenodd" d="M19.5225 48.8883L17.1253 48.8203L16.4293 43.8131L19.1684 42.0752L19.5225 48.8883Z" fill="white"/>
</mask>
<g mask="url(#mask5_701_13061)">
<path d="M21.9814 45.107C20.717 46.2786 16.5366 45.7937 16.5366 45.7937L19.5225 44.1094L20.8976 44.7984" fill="white"/>
</g>
<path fill-rule="evenodd" clip-rule="evenodd" d="M19.5215 48.8893L17.1243 48.8213L16.4283 43.814L19.1674 42.0762L19.5215 48.8893V48.8893Z" stroke="#21273D" stroke-width="0.7" stroke-linecap="round" stroke-linejoin="round"/>
<path d="M11.8266 50.7514C11.7804 49.8654 12.33 49.5045 13.1343 49.3399C14.9102 48.9765 16.6735 48.0619 16.8181 47.1689L19.6234 47.3624L19.8097 49.6652C19.8284 49.8911 19.7521 50.1148 19.5987 50.2837C19.4452 50.4526 19.2282 50.5519 18.9983 50.5585L11.8266 50.7514Z" fill="#21273D" stroke="#21273D" stroke-width="0.7" stroke-linecap="round" stroke-linejoin="round"/>
<path d="M20.707 44.4055C20.6552 45.3173 15.9258 46.0328 15.9258 46.0328L13.8523 28.6319C13.6924 27.2903 14.9743 26.1169 16.6566 26.0648L31.9667 25.5908L35.6377 25.9122L35.5657 26.4425C35.1773 29.3026 35.0443 31.576 31.4548 31.4303L19.4004 31.4577C19.4004 31.4577 20.7405 43.8168 20.707 44.4055Z" fill="#FEC204"/>
<path fill-rule="evenodd" clip-rule="evenodd" d="M20.707 44.4055C20.6552 45.3173 15.9258 46.0328 15.9258 46.0328L13.8523 28.6319C13.6924 27.2903 14.9743 26.1169 16.6566 26.0648L31.9667 25.5908L35.6377 25.9122L35.5657 26.4425C35.1773 29.3026 35.0443 31.576 31.4548 31.4303L19.4004 31.4577C19.4004 31.4577 20.7405 43.8168 20.707 44.4055Z" stroke="#21273D" stroke-width="0.7" stroke-linecap="round" stroke-linejoin="round"/>
<path d="M28.3579 17.1127C28.2211 17.6815 28.2939 18.2796 28.5632 18.8004L29.2653 20.103C29.2653 20.103 28.3187 23.4988 27.416 24.1974C26.5133 24.8961 35.3748 25.1992 35.3748 25.1992L36.8779 15.8206C36.8779 15.8206 32.7122 14.5287 29.4521 15.2004" fill="#B4F5FF"/>
<mask id="mask6_701_13061" style="mask-type:luminance" maskUnits="userSpaceOnUse" x="27" y="15" width="10" height="11">
<path fill-rule="evenodd" clip-rule="evenodd" d="M28.3589 17.1127C28.2221 17.6815 28.2949 18.2796 28.5641 18.8004L29.2662 20.103C29.2662 20.103 28.3197 23.4988 27.417 24.1974C26.5143 24.8961 35.3758 25.1992 35.3758 25.1992L36.8789 15.8206C36.8789 15.8206 32.7132 14.5287 29.453 15.2004" fill="white"/>
</mask>
<g mask="url(#mask6_701_13061)">
<ellipse cx="1.1958" cy="2.3773" rx="1.1958" ry="2.3773" transform="matrix(-0.51904 -0.85475 -0.861237 0.508203 36.5547 15.2783)" fill="white" stroke="#21273D" stroke-width="0.699982" stroke-linecap="round" stroke-linejoin="round"/>
<ellipse cx="1.33348" cy="1.31876" rx="1.33348" ry="1.31876" transform="matrix(-1 0 0 1 34.6768 19.0801)" fill="#E9FCFF" stroke="#21273D" stroke-width="0.7" stroke-linecap="round" stroke-linejoin="round"/>
<path d="M29.5566 19.8858L31.3321 20.6583L32.1133 18.9025L30.3378 18.1299L29.5566 19.8858Z" fill="#F5E4FF" stroke="#21273D" stroke-width="0.7" stroke-linecap="round" stroke-linejoin="round"/>
<path d="M31.0496 22.2414L31.7803 21.7705L31.3041 21.0479L30.5734 21.5188L31.0496 22.2414Z" fill="#FCFFE9" stroke="#21273D" stroke-width="0.7" stroke-linecap="round" stroke-linejoin="round"/>
</g>
<path d="M28.3579 17.1127C28.2211 17.6815 28.2939 18.2796 28.5632 18.8004L29.2653 20.103C29.2653 20.103 28.3187 23.4988 27.416 24.1974C26.5133 24.8961 35.3748 25.1992 35.3748 25.1992L36.8779 15.8206C36.8779 15.8206 32.7122 14.5287 29.4521 15.2004" stroke="#21273D" stroke-width="0.7" stroke-linecap="round" stroke-linejoin="round"/>
<path d="M29.1347 23.5275C28.7886 23.5196 25.7078 23.5524 25.1015 23.5163C24.4951 23.4802 23.6569 24.9072 23.4964 25.2142C23.3359 25.5213 23.838 25.5903 24.0163 25.5903C24.1946 25.5903 25.5651 24.9433 25.5651 24.9433L29.8809 25.2606L29.1347 23.5275Z" fill="white"/>
<mask id="mask7_701_13061" style="mask-type:luminance" maskUnits="userSpaceOnUse" x="23" y="23" width="7" height="3">
<path fill-rule="evenodd" clip-rule="evenodd" d="M29.1347 23.5284C28.7886 23.5206 25.7078 23.5534 25.1015 23.5173C24.4951 23.4811 23.6569 24.9081 23.4964 25.2152C23.3359 25.5223 23.838 25.5913 24.0163 25.5913C24.1946 25.5913 25.5651 24.9443 25.5651 24.9443L29.8809 25.2616L29.1347 23.5284Z" fill="white"/>
</mask>
<g mask="url(#mask7_701_13061)">
<path d="M27.0381 26.077C25.5158 24.1925 26.3276 22.8145 26.3276 22.8145L27.9863 24.805L27.0381 26.077Z" fill="white"/>
</g>
<path fill-rule="evenodd" clip-rule="evenodd" d="M29.1347 23.5275C28.7886 23.5196 25.7078 23.5524 25.1015 23.5163C24.4951 23.4802 23.6569 24.9072 23.4964 25.2142C23.3359 25.5213 23.838 25.5903 24.0163 25.5903C24.1946 25.5903 25.5651 24.9433 25.5651 24.9433L29.8809 25.2606L29.1347 23.5275Z" stroke="#21273D" stroke-width="0.7" stroke-linecap="round" stroke-linejoin="round"/>
<path d="M27.3836 25.7783H17.129V26.3734H27.9863V26.3725C27.9863 26.0443 27.7165 25.7783 27.3836 25.7783Z" fill="#4C39E3" stroke="#21273D" stroke-width="0.7" stroke-linecap="round" stroke-linejoin="round"/>
<path d="M17.1805 25.7788H24.2441L22.1209 20.0254C22.0129 19.7319 21.7303 19.5364 21.4137 19.5361H15.4956C15.354 19.5365 15.2215 19.6048 15.1405 19.7193C15.0595 19.8338 15.0402 19.98 15.0889 20.1111L17.1805 25.7788Z" fill="white"/>
<mask id="mask8_701_13061" style="mask-type:luminance" maskUnits="userSpaceOnUse" x="15" y="19" width="10" height="7">
<path fill-rule="evenodd" clip-rule="evenodd" d="M17.1805 25.7778H24.2441L22.1209 20.0244C22.0129 19.731 21.7303 19.5354 21.4137 19.5352H15.4956C15.354 19.5355 15.2215 19.6039 15.1405 19.7183C15.0595 19.8328 15.0402 19.9791 15.0889 20.1101L17.1805 25.7778Z" fill="white"/>
</mask>
<g mask="url(#mask8_701_13061)">
<path d="M15.4486 18.4668C15.7969 24.2471 19.4907 25.8737 24.2443 25.7779C28.998 25.682 24.39 27.099 24.39 27.099L14.1325 26.5439L12.2358 20.9759" fill="white"/>
</g>
<path fill-rule="evenodd" clip-rule="evenodd" d="M17.1805 25.7788H24.2441L22.1209 20.0254C22.0129 19.7319 21.7303 19.5364 21.4137 19.5361H15.4956C15.354 19.5365 15.2215 19.6048 15.1405 19.7193C15.0595 19.8338 15.0402 19.98 15.0889 20.1111L17.1805 25.7788Z" fill="#4C39E3" stroke="#21273D" stroke-width="0.7" stroke-linecap="round" stroke-linejoin="round"/>
<path d="M35.1763 18.8562L35.3561 23.0945L26.3284 23.4779C26.3284 23.4779 27.0549 25.4453 27.3521 25.7781C27.6493 26.111 37.2374 27.031 38.1064 25.5904C38.9753 24.1498 38.5209 17.8651 38.5209 17.8651C38.3883 16.7686 37.5533 15.8878 36.4644 15.6958L35.8894 15.5771" fill="#B4F5FF"/>
<path d="M35.1763 18.8562L35.3561 23.0945L26.3284 23.4779C26.3284 23.4779 27.0549 25.4453 27.3521 25.7781C27.6493 26.111 37.2374 27.031 38.1064 25.5904C38.9753 24.1498 38.5209 17.8651 38.5209 17.8651C38.3883 16.7686 37.5533 15.8878 36.4644 15.6958L35.8894 15.5771" stroke="#21273D" stroke-width="0.7" stroke-linecap="round" stroke-linejoin="round"/>
<path d="M34.8759 15.1017L35.1211 15.2102V15.7015L32.4832 15.1671L32.5829 14.835L34.8759 15.1017Z" fill="white"/>
<path d="M32.8408 11.5519C32.7826 11.5484 32.7241 11.5531 32.6672 11.5659C32.6507 11.5678 32.6356 11.5757 32.6247 11.588C32.6153 11.6081 32.6165 11.6315 32.6281 11.6505C32.65 11.7014 32.6786 11.7492 32.713 11.7929" stroke="#21273D" stroke-width="0.7" stroke-linecap="round" stroke-linejoin="round"/>
<path d="M32.0029 10.2363L31.5642 10.6957" stroke="#21273D" stroke-width="0.7" stroke-linecap="round" stroke-linejoin="round"/>
<path d="M35.9229 23.2679C35.645 23.2327 35.3885 23.1023 35.1984 22.8994" stroke="#21273D" stroke-width="0.7" stroke-linecap="round" stroke-linejoin="round"/>
<path d="M24.8535 15.7861C24.7049 15.9074 24.633 16.0974 24.6646 16.285" stroke="#21273D" stroke-width="0.7" stroke-linecap="round" stroke-linejoin="round"/>
<path d="M18.8974 30.6016C18.8476 30.9565 19.0678 31.3312 19.4043 31.464" stroke="#21273D" stroke-width="0.7" stroke-linecap="round" stroke-linejoin="round"/>
<mask id="path-69-outside-1_701_13061" maskUnits="userSpaceOnUse" x="51.3506" y="3.78418" width="116" height="46" fill="black">
<rect fill="white" x="51.3506" y="3.78418" width="116" height="46"/>
<path d="M72.5586 19.9762C72.5586 21.633 71.2154 22.9762 69.5586 22.9762H55.3506C53.6937 22.9762 52.3506 21.633 52.3506 19.9762V6.92018C52.3506 6.32371 52.8341 5.84018 53.4306 5.84018C54.0271 5.84018 54.5106 6.32371 54.5106 6.92018V18.0562C54.5106 19.713 55.8537 21.0562 57.5106 21.0562H58.3506C60.0074 21.0562 61.3506 19.713 61.3506 18.0562V6.92018C61.3506 6.32371 61.8341 5.84018 62.4306 5.84018C63.0271 5.84018 63.5106 6.32371 63.5106 6.92018V18.0562C63.5106 19.713 64.8537 21.0562 66.5106 21.0562H67.3746C69.0314 21.0562 70.3746 19.713 70.3746 18.0562V6.93218C70.3746 6.32908 70.8635 5.84018 71.4666 5.84018C72.0697 5.84018 72.5586 6.32908 72.5586 6.93218V19.9762Z"/>
<path d="M84.3041 10.404C84.4676 10.2185 84.7029 10.1122 84.9501 10.1122C85.6926 10.1122 86.0868 10.9892 85.5939 11.5444L82.9394 14.5351C82.0442 15.5437 82.0461 17.0629 82.9439 18.0693L85.9644 21.4552C86.4894 22.0437 86.0716 22.9762 85.283 22.9762C85.0223 22.9762 84.7741 22.8648 84.6008 22.67L82.2085 19.9811C81.1091 18.7455 79.0652 19.5231 79.0652 21.177V21.9202C79.0652 22.5034 78.5924 22.9762 78.0092 22.9762C77.426 22.9762 76.9532 22.5034 76.9532 21.9202V11.1682C76.9532 10.585 77.426 10.1122 78.0092 10.1122C78.5924 10.1122 79.0652 10.585 79.0652 11.1682V11.8225C79.0652 13.3991 81.0171 14.1361 82.0591 12.953L84.3041 10.404Z"/>
<path d="M90.7123 10.1122C91.2956 10.1122 91.7683 10.585 91.7683 11.1682V21.9202C91.7683 22.5034 91.2956 22.9762 90.7123 22.9762C90.1291 22.9762 89.6563 22.5034 89.6563 21.9202V11.1682C89.6563 10.585 90.1291 10.1122 90.7123 10.1122ZM90.7363 5.28818C91.0563 5.28818 91.3363 5.40018 91.5763 5.62418C91.8323 5.83218 91.9603 6.16818 91.9603 6.63218C91.9603 7.08018 91.8323 7.41618 91.5763 7.64018C91.3363 7.86418 91.0563 7.97618 90.7363 7.97618C90.3843 7.97618 90.0883 7.86418 89.8483 7.64018C89.6083 7.41618 89.4883 7.08018 89.4883 6.63218C89.4883 6.16818 89.6083 5.83218 89.8483 5.62418C90.0883 5.40018 90.3843 5.28818 90.7363 5.28818Z"/>
<path d="M105.636 21.9082C105.636 22.498 105.158 22.9762 104.568 22.9762C103.978 22.9762 103.5 22.498 103.5 21.9082V13.8347C103.5 12.7464 102.618 11.8642 101.529 11.8642C100.501 11.8642 99.6489 12.6553 99.5465 13.6785C99.4192 14.9499 99.273 16.0811 99.1078 17.0722C98.8678 18.4962 98.5638 19.6562 98.1958 20.5522C97.8278 21.4482 97.3878 22.1042 96.8758 22.5202C96.3638 22.9362 95.7638 23.1442 95.0758 23.1442C94.8678 23.1442 94.6598 23.1282 94.4518 23.0962C94.4486 23.0959 94.4455 23.0956 94.4423 23.0954C94.1443 23.0691 93.9718 22.7872 93.9718 22.488V21.7128C93.9718 21.5551 94.1277 21.4419 94.2838 21.4642C94.3958 21.4802 94.5078 21.4882 94.6198 21.4882C94.9718 21.4882 95.2918 21.3442 95.5798 21.0562C95.8678 20.7682 96.1238 20.3282 96.3478 19.7362C96.5878 19.1442 96.8038 18.4002 96.9958 17.5042C97.1878 16.5922 97.3558 15.5202 97.4998 14.2882C97.5517 13.8441 97.6016 13.3793 97.6493 12.8937C97.8032 11.3281 99.1021 10.1122 100.675 10.1122H102.636C104.293 10.1122 105.636 11.4553 105.636 13.1122V21.9082Z"/>
<path d="M115.647 15.3922C116.767 15.3922 117.695 15.5282 118.431 15.8002C119.167 16.0722 119.719 16.4802 120.087 17.0242C120.471 17.5522 120.663 18.2242 120.663 19.0402C120.663 19.8402 120.479 20.5362 120.111 21.1282C119.759 21.7202 119.207 22.1762 118.455 22.4962C117.703 22.8162 116.735 22.9762 115.551 22.9762H112.719C111.062 22.9762 109.719 21.633 109.719 19.9762V11.1682C109.719 10.585 110.192 10.1122 110.775 10.1122C111.358 10.1122 111.831 10.585 111.831 11.1682V12.7522C111.831 14.2102 113.013 15.3922 114.471 15.3922H115.647ZM118.551 19.1602C118.551 18.3762 118.271 17.8482 117.711 17.5762C117.167 17.2882 116.399 17.1442 115.407 17.1442H113.895C112.755 17.1442 111.831 18.0683 111.831 19.2082C111.831 20.3481 112.755 21.2722 113.895 21.2722H115.455C116.351 21.2722 117.087 21.1122 117.663 20.7922C118.255 20.4722 118.551 19.9282 118.551 19.1602Z"/>
<path d="M125.025 10.1122C125.608 10.1122 126.081 10.585 126.081 11.1682V12.7882C126.081 14.2661 127.279 15.4642 128.757 15.4642H130.389C131.867 15.4642 133.065 14.2661 133.065 12.7882V11.1682C133.065 10.585 133.538 10.1122 134.121 10.1122C134.704 10.1122 135.177 10.585 135.177 11.1682V21.9202C135.177 22.5034 134.704 22.9762 134.121 22.9762C133.538 22.9762 133.065 22.5034 133.065 21.9202V20.1082C133.065 18.5242 131.781 17.2402 130.197 17.2402H128.949C127.365 17.2402 126.081 18.5242 126.081 20.1082V21.9202C126.081 22.5034 125.608 22.9762 125.025 22.9762C124.442 22.9762 123.969 22.5034 123.969 21.9202V11.1682C123.969 10.585 124.442 10.1122 125.025 10.1122Z"/>
<path d="M141.242 17.9602C141.242 18.1042 141.234 18.3122 141.218 18.5842C141.218 18.8402 141.21 19.1202 141.194 19.4242C141.178 19.7122 141.162 19.9922 141.146 20.2642C141.136 20.4212 141.35 20.4934 141.435 20.3608L147.492 10.885C147.8 10.4035 148.332 10.1122 148.903 10.1122C149.828 10.1122 150.578 10.862 150.578 11.787V21.9922C150.578 22.5356 150.138 22.9762 149.594 22.9762C149.051 22.9762 148.61 22.5356 148.61 21.9922V15.3922C148.61 15.1362 148.61 14.8002 148.61 14.3842C148.626 13.9682 148.642 13.5602 148.658 13.1602C148.667 12.9165 148.334 12.8092 148.203 13.015L142.364 22.1939C142.054 22.6811 141.516 22.9762 140.939 22.9762C140.006 22.9762 139.25 22.2201 139.25 21.2874V11.1082C139.25 10.5581 139.696 10.1122 140.246 10.1122C140.796 10.1122 141.242 10.5581 141.242 11.1082V17.9602Z"/>
<path d="M164.005 4.78418C164.588 4.78418 165.063 5.28853 164.901 5.84958C164.8 6.20094 164.662 6.5178 164.488 6.80018C164.168 7.34418 163.688 7.75218 163.048 8.02418C162.408 8.29618 161.576 8.43218 160.552 8.43218C159.512 8.43218 158.672 8.29618 158.032 8.02418C157.408 7.75218 156.952 7.35218 156.664 6.82418C156.51 6.53421 156.389 6.20561 156.299 5.83836C156.162 5.27913 156.628 4.78418 157.204 4.78418C157.714 4.78418 158.118 5.18004 158.264 5.66877C158.381 6.06183 158.552 6.35097 158.776 6.53618C159.16 6.82418 159.768 6.96818 160.6 6.96818C161.336 6.96818 161.912 6.81618 162.328 6.51218C162.584 6.32219 162.779 6.04197 162.911 5.67151C163.085 5.18627 163.489 4.78418 164.005 4.78418ZM156.664 17.9602C156.664 18.1042 156.656 18.3122 156.64 18.5842C156.64 18.8402 156.632 19.1202 156.616 19.4242C156.6 19.7122 156.584 19.9922 156.568 20.2642C156.558 20.4212 156.772 20.4934 156.857 20.3608L162.914 10.885C163.222 10.4035 163.754 10.1122 164.325 10.1122C165.25 10.1122 166 10.862 166 11.787V21.9922C166 22.5356 165.559 22.9762 165.016 22.9762C164.473 22.9762 164.032 22.5356 164.032 21.9922V15.3922C164.032 15.1362 164.032 14.8002 164.032 14.3842C164.048 13.9682 164.064 13.5602 164.08 13.1602C164.089 12.9165 163.756 12.8092 163.625 13.015L157.786 22.1939C157.476 22.6811 156.938 22.9762 156.361 22.9762C155.428 22.9762 154.672 22.2201 154.672 21.2874V11.1082C154.672 10.5581 155.118 10.1122 155.668 10.1122C156.218 10.1122 156.664 10.5581 156.664 11.1082V17.9602Z"/>
<path d="M116.468 36.1122C116.958 36.1122 117.356 36.5098 117.356 37.0002C117.356 37.4906 116.958 37.8882 116.468 37.8882H114.488C112.904 37.8882 111.62 39.1722 111.62 40.7562V47.9202C111.62 48.5034 111.147 48.9762 110.564 48.9762C109.981 48.9762 109.508 48.5034 109.508 47.9202V39.1122C109.508 37.4553 110.851 36.1122 112.508 36.1122H116.468Z"/>
<path d="M124.624 35.8722C125.728 35.8722 126.672 36.1122 127.456 36.5922C128.256 37.0722 128.864 37.7522 129.28 38.6322C129.712 39.4962 129.928 40.5122 129.928 41.6802C129.928 42.3827 129.359 42.9522 128.656 42.9522H124.187C122.504 42.9522 120.963 44.4782 121.9 45.8756C121.999 46.0227 122.107 46.1602 122.224 46.2882C122.944 47.0402 123.944 47.4162 125.224 47.4162C126.04 47.4162 126.76 47.3442 127.384 47.2002C127.635 47.1375 127.888 47.065 128.144 46.9827C128.726 46.7953 129.352 47.2084 129.352 47.8199C129.352 48.1579 129.154 48.4671 128.837 48.5864C128.357 48.7679 127.88 48.9058 127.408 49.0002C126.768 49.1442 126.008 49.2162 125.128 49.2162C123.912 49.2162 122.832 48.9682 121.888 48.4722C120.96 47.9762 120.232 47.2402 119.704 46.2642C119.192 45.2722 118.936 44.0642 118.936 42.6402C118.936 41.2322 119.168 40.0242 119.632 39.0162C120.112 38.0082 120.776 37.2322 121.624 36.6882C122.488 36.1442 123.488 35.8722 124.624 35.8722ZM124.6 37.6002C123.592 37.6002 122.792 37.9282 122.2 38.5842C121.15 39.7508 122.528 41.2722 124.097 41.2722H125.759C126.842 41.2722 127.797 40.3539 127.384 39.3522C127.16 38.8082 126.816 38.3842 126.352 38.0802C125.904 37.7602 125.32 37.6002 124.6 37.6002Z"/>
<path d="M134.259 36.1122C134.842 36.1122 135.315 36.585 135.315 37.1682V38.7882C135.315 40.2661 136.513 41.4642 137.991 41.4642H139.623C141.101 41.4642 142.299 40.2661 142.299 38.7882V37.1682C142.299 36.585 142.772 36.1122 143.355 36.1122C143.938 36.1122 144.411 36.585 144.411 37.1682V47.9202C144.411 48.5034 143.938 48.9762 143.355 48.9762C142.772 48.9762 142.299 48.5034 142.299 47.9202V46.1082C142.299 44.5242 141.015 43.2402 139.431 43.2402H138.183C136.599 43.2402 135.315 44.5242 135.315 46.1082V47.9202C135.315 48.5034 134.842 48.9762 134.259 48.9762C133.676 48.9762 133.203 48.5034 133.203 47.9202V37.1682C133.203 36.585 133.676 36.1122 134.259 36.1122Z"/>
<path d="M149.54 36.1122C150.124 36.1122 150.596 36.585 150.596 37.1682V47.9202C150.596 48.5034 150.124 48.9762 149.54 48.9762C148.957 48.9762 148.484 48.5034 148.484 47.9202V37.1682C148.484 36.585 148.957 36.1122 149.54 36.1122ZM149.564 31.2882C149.884 31.2882 150.164 31.4002 150.404 31.6242C150.66 31.8322 150.788 32.1682 150.788 32.6322C150.788 33.0802 150.66 33.4162 150.404 33.6402C150.164 33.8642 149.884 33.9762 149.564 33.9762C149.212 33.9762 148.916 33.8642 148.676 33.6402C148.436 33.4162 148.316 33.0802 148.316 32.6322C148.316 32.1682 148.436 31.8322 148.676 31.6242C148.916 31.4002 149.212 31.2882 149.564 31.2882Z"/>
<path d="M164.005 30.7842C164.588 30.7842 165.063 31.2885 164.901 31.8496C164.8 32.2009 164.662 32.5178 164.488 32.8002C164.168 33.3442 163.688 33.7522 163.048 34.0242C162.408 34.2962 161.576 34.4322 160.552 34.4322C159.512 34.4322 158.672 34.2962 158.032 34.0242C157.408 33.7522 156.952 33.3522 156.664 32.8242C156.51 32.5342 156.389 32.2056 156.299 31.8384C156.162 31.2791 156.628 30.7842 157.204 30.7842C157.714 30.7842 158.118 31.18 158.264 31.6688C158.381 32.0618 158.552 32.351 158.776 32.5362C159.16 32.8242 159.768 32.9682 160.6 32.9682C161.336 32.9682 161.912 32.8162 162.328 32.5122C162.584 32.3222 162.779 32.042 162.911 31.6715C163.085 31.1863 163.489 30.7842 164.005 30.7842ZM156.664 43.9602C156.664 44.1042 156.656 44.3122 156.64 44.5842C156.64 44.8402 156.632 45.1202 156.616 45.4242C156.6 45.7122 156.584 45.9922 156.568 46.2642C156.558 46.4212 156.772 46.4934 156.857 46.3608L162.914 36.885C163.222 36.4035 163.754 36.1122 164.325 36.1122C165.25 36.1122 166 36.862 166 37.787V47.9922C166 48.5356 165.559 48.9762 165.016 48.9762C164.473 48.9762 164.032 48.5356 164.032 47.9922V41.3922C164.032 41.1362 164.032 40.8002 164.032 40.3842C164.048 39.9682 164.064 39.5602 164.08 39.1602C164.089 38.9165 163.756 38.8092 163.625 39.015L157.786 48.1939C157.476 48.6811 156.938 48.9762 156.361 48.9762C155.428 48.9762 154.672 48.2201 154.672 47.2874V37.1082C154.672 36.5581 155.118 36.1122 155.668 36.1122C156.218 36.1122 156.664 36.5581 156.664 37.1082V43.9602Z"/>
</mask>
<path d="M72.5586 19.9762C72.5586 21.633 71.2154 22.9762 69.5586 22.9762H55.3506C53.6937 22.9762 52.3506 21.633 52.3506 19.9762V6.92018C52.3506 6.32371 52.8341 5.84018 53.4306 5.84018C54.0271 5.84018 54.5106 6.32371 54.5106 6.92018V18.0562C54.5106 19.713 55.8537 21.0562 57.5106 21.0562H58.3506C60.0074 21.0562 61.3506 19.713 61.3506 18.0562V6.92018C61.3506 6.32371 61.8341 5.84018 62.4306 5.84018C63.0271 5.84018 63.5106 6.32371 63.5106 6.92018V18.0562C63.5106 19.713 64.8537 21.0562 66.5106 21.0562H67.3746C69.0314 21.0562 70.3746 19.713 70.3746 18.0562V6.93218C70.3746 6.32908 70.8635 5.84018 71.4666 5.84018C72.0697 5.84018 72.5586 6.32908 72.5586 6.93218V19.9762Z" fill="#0C0C0C"/>
<path d="M84.3041 10.404C84.4676 10.2185 84.7029 10.1122 84.9501 10.1122C85.6926 10.1122 86.0868 10.9892 85.5939 11.5444L82.9394 14.5351C82.0442 15.5437 82.0461 17.0629 82.9439 18.0693L85.9644 21.4552C86.4894 22.0437 86.0716 22.9762 85.283 22.9762C85.0223 22.9762 84.7741 22.8648 84.6008 22.67L82.2085 19.9811C81.1091 18.7455 79.0652 19.5231 79.0652 21.177V21.9202C79.0652 22.5034 78.5924 22.9762 78.0092 22.9762C77.426 22.9762 76.9532 22.5034 76.9532 21.9202V11.1682C76.9532 10.585 77.426 10.1122 78.0092 10.1122C78.5924 10.1122 79.0652 10.585 79.0652 11.1682V11.8225C79.0652 13.3991 81.0171 14.1361 82.0591 12.953L84.3041 10.404Z" fill="#0C0C0C"/>
<path d="M90.7123 10.1122C91.2956 10.1122 91.7683 10.585 91.7683 11.1682V21.9202C91.7683 22.5034 91.2956 22.9762 90.7123 22.9762C90.1291 22.9762 89.6563 22.5034 89.6563 21.9202V11.1682C89.6563 10.585 90.1291 10.1122 90.7123 10.1122ZM90.7363 5.28818C91.0563 5.28818 91.3363 5.40018 91.5763 5.62418C91.8323 5.83218 91.9603 6.16818 91.9603 6.63218C91.9603 7.08018 91.8323 7.41618 91.5763 7.64018C91.3363 7.86418 91.0563 7.97618 90.7363 7.97618C90.3843 7.97618 90.0883 7.86418 89.8483 7.64018C89.6083 7.41618 89.4883 7.08018 89.4883 6.63218C89.4883 6.16818 89.6083 5.83218 89.8483 5.62418C90.0883 5.40018 90.3843 5.28818 90.7363 5.28818Z" fill="#0C0C0C"/>
<path d="M105.636 21.9082C105.636 22.498 105.158 22.9762 104.568 22.9762C103.978 22.9762 103.5 22.498 103.5 21.9082V13.8347C103.5 12.7464 102.618 11.8642 101.529 11.8642C100.501 11.8642 99.6489 12.6553 99.5465 13.6785C99.4192 14.9499 99.273 16.0811 99.1078 17.0722C98.8678 18.4962 98.5638 19.6562 98.1958 20.5522C97.8278 21.4482 97.3878 22.1042 96.8758 22.5202C96.3638 22.9362 95.7638 23.1442 95.0758 23.1442C94.8678 23.1442 94.6598 23.1282 94.4518 23.0962C94.4486 23.0959 94.4455 23.0956 94.4423 23.0954C94.1443 23.0691 93.9718 22.7872 93.9718 22.488V21.7128C93.9718 21.5551 94.1277 21.4419 94.2838 21.4642C94.3958 21.4802 94.5078 21.4882 94.6198 21.4882C94.9718 21.4882 95.2918 21.3442 95.5798 21.0562C95.8678 20.7682 96.1238 20.3282 96.3478 19.7362C96.5878 19.1442 96.8038 18.4002 96.9958 17.5042C97.1878 16.5922 97.3558 15.5202 97.4998 14.2882C97.5517 13.8441 97.6016 13.3793 97.6493 12.8937C97.8032 11.3281 99.1021 10.1122 100.675 10.1122H102.636C104.293 10.1122 105.636 11.4553 105.636 13.1122V21.9082Z" fill="#0C0C0C"/>
<path d="M115.647 15.3922C116.767 15.3922 117.695 15.5282 118.431 15.8002C119.167 16.0722 119.719 16.4802 120.087 17.0242C120.471 17.5522 120.663 18.2242 120.663 19.0402C120.663 19.8402 120.479 20.5362 120.111 21.1282C119.759 21.7202 119.207 22.1762 118.455 22.4962C117.703 22.8162 116.735 22.9762 115.551 22.9762H112.719C111.062 22.9762 109.719 21.633 109.719 19.9762V11.1682C109.719 10.585 110.192 10.1122 110.775 10.1122C111.358 10.1122 111.831 10.585 111.831 11.1682V12.7522C111.831 14.2102 113.013 15.3922 114.471 15.3922H115.647ZM118.551 19.1602C118.551 18.3762 118.271 17.8482 117.711 17.5762C117.167 17.2882 116.399 17.1442 115.407 17.1442H113.895C112.755 17.1442 111.831 18.0683 111.831 19.2082C111.831 20.3481 112.755 21.2722 113.895 21.2722H115.455C116.351 21.2722 117.087 21.1122 117.663 20.7922C118.255 20.4722 118.551 19.9282 118.551 19.1602Z" fill="#0C0C0C"/>
<path d="M125.025 10.1122C125.608 10.1122 126.081 10.585 126.081 11.1682V12.7882C126.081 14.2661 127.279 15.4642 128.757 15.4642H130.389C131.867 15.4642 133.065 14.2661 133.065 12.7882V11.1682C133.065 10.585 133.538 10.1122 134.121 10.1122C134.704 10.1122 135.177 10.585 135.177 11.1682V21.9202C135.177 22.5034 134.704 22.9762 134.121 22.9762C133.538 22.9762 133.065 22.5034 133.065 21.9202V20.1082C133.065 18.5242 131.781 17.2402 130.197 17.2402H128.949C127.365 17.2402 126.081 18.5242 126.081 20.1082V21.9202C126.081 22.5034 125.608 22.9762 125.025 22.9762C124.442 22.9762 123.969 22.5034 123.969 21.9202V11.1682C123.969 10.585 124.442 10.1122 125.025 10.1122Z" fill="#0C0C0C"/>
<path d="M141.242 17.9602C141.242 18.1042 141.234 18.3122 141.218 18.5842C141.218 18.8402 141.21 19.1202 141.194 19.4242C141.178 19.7122 141.162 19.9922 141.146 20.2642C141.136 20.4212 141.35 20.4934 141.435 20.3608L147.492 10.885C147.8 10.4035 148.332 10.1122 148.903 10.1122C149.828 10.1122 150.578 10.862 150.578 11.787V21.9922C150.578 22.5356 150.138 22.9762 149.594 22.9762C149.051 22.9762 148.61 22.5356 148.61 21.9922V15.3922C148.61 15.1362 148.61 14.8002 148.61 14.3842C148.626 13.9682 148.642 13.5602 148.658 13.1602C148.667 12.9165 148.334 12.8092 148.203 13.015L142.364 22.1939C142.054 22.6811 141.516 22.9762 140.939 22.9762C140.006 22.9762 139.25 22.2201 139.25 21.2874V11.1082C139.25 10.5581 139.696 10.1122 140.246 10.1122C140.796 10.1122 141.242 10.5581 141.242 11.1082V17.9602Z" fill="#0C0C0C"/>
<path d="M164.005 4.78418C164.588 4.78418 165.063 5.28853 164.901 5.84958C164.8 6.20094 164.662 6.5178 164.488 6.80018C164.168 7.34418 163.688 7.75218 163.048 8.02418C162.408 8.29618 161.576 8.43218 160.552 8.43218C159.512 8.43218 158.672 8.29618 158.032 8.02418C157.408 7.75218 156.952 7.35218 156.664 6.82418C156.51 6.53421 156.389 6.20561 156.299 5.83836C156.162 5.27913 156.628 4.78418 157.204 4.78418C157.714 4.78418 158.118 5.18004 158.264 5.66877C158.381 6.06183 158.552 6.35097 158.776 6.53618C159.16 6.82418 159.768 6.96818 160.6 6.96818C161.336 6.96818 161.912 6.81618 162.328 6.51218C162.584 6.32219 162.779 6.04197 162.911 5.67151C163.085 5.18627 163.489 4.78418 164.005 4.78418ZM156.664 17.9602C156.664 18.1042 156.656 18.3122 156.64 18.5842C156.64 18.8402 156.632 19.1202 156.616 19.4242C156.6 19.7122 156.584 19.9922 156.568 20.2642C156.558 20.4212 156.772 20.4934 156.857 20.3608L162.914 10.885C163.222 10.4035 163.754 10.1122 164.325 10.1122C165.25 10.1122 166 10.862 166 11.787V21.9922C166 22.5356 165.559 22.9762 165.016 22.9762C164.473 22.9762 164.032 22.5356 164.032 21.9922V15.3922C164.032 15.1362 164.032 14.8002 164.032 14.3842C164.048 13.9682 164.064 13.5602 164.08 13.1602C164.089 12.9165 163.756 12.8092 163.625 13.015L157.786 22.1939C157.476 22.6811 156.938 22.9762 156.361 22.9762C155.428 22.9762 154.672 22.2201 154.672 21.2874V11.1082C154.672 10.5581 155.118 10.1122 155.668 10.1122C156.218 10.1122 156.664 10.5581 156.664 11.1082V17.9602Z" fill="#0C0C0C"/>
<path d="M116.468 36.1122C116.958 36.1122 117.356 36.5098 117.356 37.0002C117.356 37.4906 116.958 37.8882 116.468 37.8882H114.488C112.904 37.8882 111.62 39.1722 111.62 40.7562V47.9202C111.62 48.5034 111.147 48.9762 110.564 48.9762C109.981 48.9762 109.508 48.5034 109.508 47.9202V39.1122C109.508 37.4553 110.851 36.1122 112.508 36.1122H116.468Z" fill="#0C0C0C"/>
<path d="M124.624 35.8722C125.728 35.8722 126.672 36.1122 127.456 36.5922C128.256 37.0722 128.864 37.7522 129.28 38.6322C129.712 39.4962 129.928 40.5122 129.928 41.6802C129.928 42.3827 129.359 42.9522 128.656 42.9522H124.187C122.504 42.9522 120.963 44.4782 121.9 45.8756C121.999 46.0227 122.107 46.1602 122.224 46.2882C122.944 47.0402 123.944 47.4162 125.224 47.4162C126.04 47.4162 126.76 47.3442 127.384 47.2002C127.635 47.1375 127.888 47.065 128.144 46.9827C128.726 46.7953 129.352 47.2084 129.352 47.8199C129.352 48.1579 129.154 48.4671 128.837 48.5864C128.357 48.7679 127.88 48.9058 127.408 49.0002C126.768 49.1442 126.008 49.2162 125.128 49.2162C123.912 49.2162 122.832 48.9682 121.888 48.4722C120.96 47.9762 120.232 47.2402 119.704 46.2642C119.192 45.2722 118.936 44.0642 118.936 42.6402C118.936 41.2322 119.168 40.0242 119.632 39.0162C120.112 38.0082 120.776 37.2322 121.624 36.6882C122.488 36.1442 123.488 35.8722 124.624 35.8722ZM124.6 37.6002C123.592 37.6002 122.792 37.9282 122.2 38.5842C121.15 39.7508 122.528 41.2722 124.097 41.2722H125.759C126.842 41.2722 127.797 40.3539 127.384 39.3522C127.16 38.8082 126.816 38.3842 126.352 38.0802C125.904 37.7602 125.32 37.6002 124.6 37.6002Z" fill="#0C0C0C"/>
<path d="M134.259 36.1122C134.842 36.1122 135.315 36.585 135.315 37.1682V38.7882C135.315 40.2661 136.513 41.4642 137.991 41.4642H139.623C141.101 41.4642 142.299 40.2661 142.299 38.7882V37.1682C142.299 36.585 142.772 36.1122 143.355 36.1122C143.938 36.1122 144.411 36.585 144.411 37.1682V47.9202C144.411 48.5034 143.938 48.9762 143.355 48.9762C142.772 48.9762 142.299 48.5034 142.299 47.9202V46.1082C142.299 44.5242 141.015 43.2402 139.431 43.2402H138.183C136.599 43.2402 135.315 44.5242 135.315 46.1082V47.9202C135.315 48.5034 134.842 48.9762 134.259 48.9762C133.676 48.9762 133.203 48.5034 133.203 47.9202V37.1682C133.203 36.585 133.676 36.1122 134.259 36.1122Z" fill="#0C0C0C"/>
<path d="M149.54 36.1122C150.124 36.1122 150.596 36.585 150.596 37.1682V47.9202C150.596 48.5034 150.124 48.9762 149.54 48.9762C148.957 48.9762 148.484 48.5034 148.484 47.9202V37.1682C148.484 36.585 148.957 36.1122 149.54 36.1122ZM149.564 31.2882C149.884 31.2882 150.164 31.4002 150.404 31.6242C150.66 31.8322 150.788 32.1682 150.788 32.6322C150.788 33.0802 150.66 33.4162 150.404 33.6402C150.164 33.8642 149.884 33.9762 149.564 33.9762C149.212 33.9762 148.916 33.8642 148.676 33.6402C148.436 33.4162 148.316 33.0802 148.316 32.6322C148.316 32.1682 148.436 31.8322 148.676 31.6242C148.916 31.4002 149.212 31.2882 149.564 31.2882Z" fill="#0C0C0C"/>
<path d="M164.005 30.7842C164.588 30.7842 165.063 31.2885 164.901 31.8496C164.8 32.2009 164.662 32.5178 164.488 32.8002C164.168 33.3442 163.688 33.7522 163.048 34.0242C162.408 34.2962 161.576 34.4322 160.552 34.4322C159.512 34.4322 158.672 34.2962 158.032 34.0242C157.408 33.7522 156.952 33.3522 156.664 32.8242C156.51 32.5342 156.389 32.2056 156.299 31.8384C156.162 31.2791 156.628 30.7842 157.204 30.7842C157.714 30.7842 158.118 31.18 158.264 31.6688C158.381 32.0618 158.552 32.351 158.776 32.5362C159.16 32.8242 159.768 32.9682 160.6 32.9682C161.336 32.9682 161.912 32.8162 162.328 32.5122C162.584 32.3222 162.779 32.042 162.911 31.6715C163.085 31.1863 163.489 30.7842 164.005 30.7842ZM156.664 43.9602C156.664 44.1042 156.656 44.3122 156.64 44.5842C156.64 44.8402 156.632 45.1202 156.616 45.4242C156.6 45.7122 156.584 45.9922 156.568 46.2642C156.558 46.4212 156.772 46.4934 156.857 46.3608L162.914 36.885C163.222 36.4035 163.754 36.1122 164.325 36.1122C165.25 36.1122 166 36.862 166 37.787V47.9922C166 48.5356 165.559 48.9762 165.016 48.9762C164.473 48.9762 164.032 48.5356 164.032 47.9922V41.3922C164.032 41.1362 164.032 40.8002 164.032 40.3842C164.048 39.9682 164.064 39.5602 164.08 39.1602C164.089 38.9165 163.756 38.8092 163.625 39.015L157.786 48.1939C157.476 48.6811 156.938 48.9762 156.361 48.9762C155.428 48.9762 154.672 48.2201 154.672 47.2874V37.1082C154.672 36.5581 155.118 36.1122 155.668 36.1122C156.218 36.1122 156.664 36.5581 156.664 37.1082V43.9602Z" fill="#0C0C0C"/>
<path d="M72.5586 19.9762C72.5586 21.633 71.2154 22.9762 69.5586 22.9762H55.3506C53.6937 22.9762 52.3506 21.633 52.3506 19.9762V6.92018C52.3506 6.32371 52.8341 5.84018 53.4306 5.84018C54.0271 5.84018 54.5106 6.32371 54.5106 6.92018V18.0562C54.5106 19.713 55.8537 21.0562 57.5106 21.0562H58.3506C60.0074 21.0562 61.3506 19.713 61.3506 18.0562V6.92018C61.3506 6.32371 61.8341 5.84018 62.4306 5.84018C63.0271 5.84018 63.5106 6.32371 63.5106 6.92018V18.0562C63.5106 19.713 64.8537 21.0562 66.5106 21.0562H67.3746C69.0314 21.0562 70.3746 19.713 70.3746 18.0562V6.93218C70.3746 6.32908 70.8635 5.84018 71.4666 5.84018C72.0697 5.84018 72.5586 6.32908 72.5586 6.93218V19.9762Z" stroke="#0C0C0C" mask="url(#path-69-outside-1_701_13061)"/>
<path d="M84.3041 10.404C84.4676 10.2185 84.7029 10.1122 84.9501 10.1122C85.6926 10.1122 86.0868 10.9892 85.5939 11.5444L82.9394 14.5351C82.0442 15.5437 82.0461 17.0629 82.9439 18.0693L85.9644 21.4552C86.4894 22.0437 86.0716 22.9762 85.283 22.9762C85.0223 22.9762 84.7741 22.8648 84.6008 22.67L82.2085 19.9811C81.1091 18.7455 79.0652 19.5231 79.0652 21.177V21.9202C79.0652 22.5034 78.5924 22.9762 78.0092 22.9762C77.426 22.9762 76.9532 22.5034 76.9532 21.9202V11.1682C76.9532 10.585 77.426 10.1122 78.0092 10.1122C78.5924 10.1122 79.0652 10.585 79.0652 11.1682V11.8225C79.0652 13.3991 81.0171 14.1361 82.0591 12.953L84.3041 10.404Z" stroke="#0C0C0C" mask="url(#path-69-outside-1_701_13061)"/>
<path d="M90.7123 10.1122C91.2956 10.1122 91.7683 10.585 91.7683 11.1682V21.9202C91.7683 22.5034 91.2956 22.9762 90.7123 22.9762C90.1291 22.9762 89.6563 22.5034 89.6563 21.9202V11.1682C89.6563 10.585 90.1291 10.1122 90.7123 10.1122ZM90.7363 5.28818C91.0563 5.28818 91.3363 5.40018 91.5763 5.62418C91.8323 5.83218 91.9603 6.16818 91.9603 6.63218C91.9603 7.08018 91.8323 7.41618 91.5763 7.64018C91.3363 7.86418 91.0563 7.97618 90.7363 7.97618C90.3843 7.97618 90.0883 7.86418 89.8483 7.64018C89.6083 7.41618 89.4883 7.08018 89.4883 6.63218C89.4883 6.16818 89.6083 5.83218 89.8483 5.62418C90.0883 5.40018 90.3843 5.28818 90.7363 5.28818Z" stroke="#0C0C0C" mask="url(#path-69-outside-1_701_13061)"/>
<path d="M105.636 21.9082C105.636 22.498 105.158 22.9762 104.568 22.9762C103.978 22.9762 103.5 22.498 103.5 21.9082V13.8347C103.5 12.7464 102.618 11.8642 101.529 11.8642C100.501 11.8642 99.6489 12.6553 99.5465 13.6785C99.4192 14.9499 99.273 16.0811 99.1078 17.0722C98.8678 18.4962 98.5638 19.6562 98.1958 20.5522C97.8278 21.4482 97.3878 22.1042 96.8758 22.5202C96.3638 22.9362 95.7638 23.1442 95.0758 23.1442C94.8678 23.1442 94.6598 23.1282 94.4518 23.0962C94.4486 23.0959 94.4455 23.0956 94.4423 23.0954C94.1443 23.0691 93.9718 22.7872 93.9718 22.488V21.7128C93.9718 21.5551 94.1277 21.4419 94.2838 21.4642C94.3958 21.4802 94.5078 21.4882 94.6198 21.4882C94.9718 21.4882 95.2918 21.3442 95.5798 21.0562C95.8678 20.7682 96.1238 20.3282 96.3478 19.7362C96.5878 19.1442 96.8038 18.4002 96.9958 17.5042C97.1878 16.5922 97.3558 15.5202 97.4998 14.2882C97.5517 13.8441 97.6016 13.3793 97.6493 12.8937C97.8032 11.3281 99.1021 10.1122 100.675 10.1122H102.636C104.293 10.1122 105.636 11.4553 105.636 13.1122V21.9082Z" stroke="#0C0C0C" mask="url(#path-69-outside-1_701_13061)"/>
<path d="M115.647 15.3922C116.767 15.3922 117.695 15.5282 118.431 15.8002C119.167 16.0722 119.719 16.4802 120.087 17.0242C120.471 17.5522 120.663 18.2242 120.663 19.0402C120.663 19.8402 120.479 20.5362 120.111 21.1282C119.759 21.7202 119.207 22.1762 118.455 22.4962C117.703 22.8162 116.735 22.9762 115.551 22.9762H112.719C111.062 22.9762 109.719 21.633 109.719 19.9762V11.1682C109.719 10.585 110.192 10.1122 110.775 10.1122C111.358 10.1122 111.831 10.585 111.831 11.1682V12.7522C111.831 14.2102 113.013 15.3922 114.471 15.3922H115.647ZM118.551 19.1602C118.551 18.3762 118.271 17.8482 117.711 17.5762C117.167 17.2882 116.399 17.1442 115.407 17.1442H113.895C112.755 17.1442 111.831 18.0683 111.831 19.2082C111.831 20.3481 112.755 21.2722 113.895 21.2722H115.455C116.351 21.2722 117.087 21.1122 117.663 20.7922C118.255 20.4722 118.551 19.9282 118.551 19.1602Z" stroke="#0C0C0C" mask="url(#path-69-outside-1_701_13061)"/>
<path d="M125.025 10.1122C125.608 10.1122 126.081 10.585 126.081 11.1682V12.7882C126.081 14.2661 127.279 15.4642 128.757 15.4642H130.389C131.867 15.4642 133.065 14.2661 133.065 12.7882V11.1682C133.065 10.585 133.538 10.1122 134.121 10.1122C134.704 10.1122 135.177 10.585 135.177 11.1682V21.9202C135.177 22.5034 134.704 22.9762 134.121 22.9762C133.538 22.9762 133.065 22.5034 133.065 21.9202V20.1082C133.065 18.5242 131.781 17.2402 130.197 17.2402H128.949C127.365 17.2402 126.081 18.5242 126.081 20.1082V21.9202C126.081 22.5034 125.608 22.9762 125.025 22.9762C124.442 22.9762 123.969 22.5034 123.969 21.9202V11.1682C123.969 10.585 124.442 10.1122 125.025 10.1122Z" stroke="#0C0C0C" mask="url(#path-69-outside-1_701_13061)"/>
<path d="M141.242 17.9602C141.242 18.1042 141.234 18.3122 141.218 18.5842C141.218 18.8402 141.21 19.1202 141.194 19.4242C141.178 19.7122 141.162 19.9922 141.146 20.2642C141.136 20.4212 141.35 20.4934 141.435 20.3608L147.492 10.885C147.8 10.4035 148.332 10.1122 148.903 10.1122C149.828 10.1122 150.578 10.862 150.578 11.787V21.9922C150.578 22.5356 150.138 22.9762 149.594 22.9762C149.051 22.9762 148.61 22.5356 148.61 21.9922V15.3922C148.61 15.1362 148.61 14.8002 148.61 14.3842C148.626 13.9682 148.642 13.5602 148.658 13.1602C148.667 12.9165 148.334 12.8092 148.203 13.015L142.364 22.1939C142.054 22.6811 141.516 22.9762 140.939 22.9762C140.006 22.9762 139.25 22.2201 139.25 21.2874V11.1082C139.25 10.5581 139.696 10.1122 140.246 10.1122C140.796 10.1122 141.242 10.5581 141.242 11.1082V17.9602Z" stroke="#0C0C0C" mask="url(#path-69-outside-1_701_13061)"/>
<path d="M164.005 4.78418C164.588 4.78418 165.063 5.28853 164.901 5.84958C164.8 6.20094 164.662 6.5178 164.488 6.80018C164.168 7.34418 163.688 7.75218 163.048 8.02418C162.408 8.29618 161.576 8.43218 160.552 8.43218C159.512 8.43218 158.672 8.29618 158.032 8.02418C157.408 7.75218 156.952 7.35218 156.664 6.82418C156.51 6.53421 156.389 6.20561 156.299 5.83836C156.162 5.27913 156.628 4.78418 157.204 4.78418C157.714 4.78418 158.118 5.18004 158.264 5.66877C158.381 6.06183 158.552 6.35097 158.776 6.53618C159.16 6.82418 159.768 6.96818 160.6 6.96818C161.336 6.96818 161.912 6.81618 162.328 6.51218C162.584 6.32219 162.779 6.04197 162.911 5.67151C163.085 5.18627 163.489 4.78418 164.005 4.78418ZM156.664 17.9602C156.664 18.1042 156.656 18.3122 156.64 18.5842C156.64 18.8402 156.632 19.1202 156.616 19.4242C156.6 19.7122 156.584 19.9922 156.568 20.2642C156.558 20.4212 156.772 20.4934 156.857 20.3608L162.914 10.885C163.222 10.4035 163.754 10.1122 164.325 10.1122C165.25 10.1122 166 10.862 166 11.787V21.9922C166 22.5356 165.559 22.9762 165.016 22.9762C164.473 22.9762 164.032 22.5356 164.032 21.9922V15.3922C164.032 15.1362 164.032 14.8002 164.032 14.3842C164.048 13.9682 164.064 13.5602 164.08 13.1602C164.089 12.9165 163.756 12.8092 163.625 13.015L157.786 22.1939C157.476 22.6811 156.938 22.9762 156.361 22.9762C155.428 22.9762 154.672 22.2201 154.672 21.2874V11.1082C154.672 10.5581 155.118 10.1122 155.668 10.1122C156.218 10.1122 156.664 10.5581 156.664 11.1082V17.9602Z" stroke="#0C0C0C" mask="url(#path-69-outside-1_701_13061)"/>
<path d="M116.468 36.1122C116.958 36.1122 117.356 36.5098 117.356 37.0002C117.356 37.4906 116.958 37.8882 116.468 37.8882H114.488C112.904 37.8882 111.62 39.1722 111.62 40.7562V47.9202C111.62 48.5034 111.147 48.9762 110.564 48.9762C109.981 48.9762 109.508 48.5034 109.508 47.9202V39.1122C109.508 37.4553 110.851 36.1122 112.508 36.1122H116.468Z" stroke="#0C0C0C" mask="url(#path-69-outside-1_701_13061)"/>
<path d="M124.624 35.8722C125.728 35.8722 126.672 36.1122 127.456 36.5922C128.256 37.0722 128.864 37.7522 129.28 38.6322C129.712 39.4962 129.928 40.5122 129.928 41.6802C129.928 42.3827 129.359 42.9522 128.656 42.9522H124.187C122.504 42.9522 120.963 44.4782 121.9 45.8756C121.999 46.0227 122.107 46.1602 122.224 46.2882C122.944 47.0402 123.944 47.4162 125.224 47.4162C126.04 47.4162 126.76 47.3442 127.384 47.2002C127.635 47.1375 127.888 47.065 128.144 46.9827C128.726 46.7953 129.352 47.2084 129.352 47.8199C129.352 48.1579 129.154 48.4671 128.837 48.5864C128.357 48.7679 127.88 48.9058 127.408 49.0002C126.768 49.1442 126.008 49.2162 125.128 49.2162C123.912 49.2162 122.832 48.9682 121.888 48.4722C120.96 47.9762 120.232 47.2402 119.704 46.2642C119.192 45.2722 118.936 44.0642 118.936 42.6402C118.936 41.2322 119.168 40.0242 119.632 39.0162C120.112 38.0082 120.776 37.2322 121.624 36.6882C122.488 36.1442 123.488 35.8722 124.624 35.8722ZM124.6 37.6002C123.592 37.6002 122.792 37.9282 122.2 38.5842C121.15 39.7508 122.528 41.2722 124.097 41.2722H125.759C126.842 41.2722 127.797 40.3539 127.384 39.3522C127.16 38.8082 126.816 38.3842 126.352 38.0802C125.904 37.7602 125.32 37.6002 124.6 37.6002Z" stroke="#0C0C0C" mask="url(#path-69-outside-1_701_13061)"/>
<path d="M134.259 36.1122C134.842 36.1122 135.315 36.585 135.315 37.1682V38.7882C135.315 40.2661 136.513 41.4642 137.991 41.4642H139.623C141.101 41.4642 142.299 40.2661 142.299 38.7882V37.1682C142.299 36.585 142.772 36.1122 143.355 36.1122C143.938 36.1122 144.411 36.585 144.411 37.1682V47.9202C144.411 48.5034 143.938 48.9762 143.355 48.9762C142.772 48.9762 142.299 48.5034 142.299 47.9202V46.1082C142.299 44.5242 141.015 43.2402 139.431 43.2402H138.183C136.599 43.2402 135.315 44.5242 135.315 46.1082V47.9202C135.315 48.5034 134.842 48.9762 134.259 48.9762C133.676 48.9762 133.203 48.5034 133.203 47.9202V37.1682C133.203 36.585 133.676 36.1122 134.259 36.1122Z" stroke="#0C0C0C" mask="url(#path-69-outside-1_701_13061)"/>
<path d="M149.54 36.1122C150.124 36.1122 150.596 36.585 150.596 37.1682V47.9202C150.596 48.5034 150.124 48.9762 149.54 48.9762C148.957 48.9762 148.484 48.5034 148.484 47.9202V37.1682C148.484 36.585 148.957 36.1122 149.54 36.1122ZM149.564 31.2882C149.884 31.2882 150.164 31.4002 150.404 31.6242C150.66 31.8322 150.788 32.1682 150.788 32.6322C150.788 33.0802 150.66 33.4162 150.404 33.6402C150.164 33.8642 149.884 33.9762 149.564 33.9762C149.212 33.9762 148.916 33.8642 148.676 33.6402C148.436 33.4162 148.316 33.0802 148.316 32.6322C148.316 32.1682 148.436 31.8322 148.676 31.6242C148.916 31.4002 149.212 31.2882 149.564 31.2882Z" stroke="#0C0C0C" mask="url(#path-69-outside-1_701_13061)"/>
<path d="M164.005 30.7842C164.588 30.7842 165.063 31.2885 164.901 31.8496C164.8 32.2009 164.662 32.5178 164.488 32.8002C164.168 33.3442 163.688 33.7522 163.048 34.0242C162.408 34.2962 161.576 34.4322 160.552 34.4322C159.512 34.4322 158.672 34.2962 158.032 34.0242C157.408 33.7522 156.952 33.3522 156.664 32.8242C156.51 32.5342 156.389 32.2056 156.299 31.8384C156.162 31.2791 156.628 30.7842 157.204 30.7842C157.714 30.7842 158.118 31.18 158.264 31.6688C158.381 32.0618 158.552 32.351 158.776 32.5362C159.16 32.8242 159.768 32.9682 160.6 32.9682C161.336 32.9682 161.912 32.8162 162.328 32.5122C162.584 32.3222 162.779 32.042 162.911 31.6715C163.085 31.1863 163.489 30.7842 164.005 30.7842ZM156.664 43.9602C156.664 44.1042 156.656 44.3122 156.64 44.5842C156.64 44.8402 156.632 45.1202 156.616 45.4242C156.6 45.7122 156.584 45.9922 156.568 46.2642C156.558 46.4212 156.772 46.4934 156.857 46.3608L162.914 36.885C163.222 36.4035 163.754 36.1122 164.325 36.1122C165.25 36.1122 166 36.862 166 37.787V47.9922C166 48.5356 165.559 48.9762 165.016 48.9762C164.473 48.9762 164.032 48.5356 164.032 47.9922V41.3922C164.032 41.1362 164.032 40.8002 164.032 40.3842C164.048 39.9682 164.064 39.5602 164.08 39.1602C164.089 38.9165 163.756 38.8092 163.625 39.015L157.786 48.1939C157.476 48.6811 156.938 48.9762 156.361 48.9762C155.428 48.9762 154.672 48.2201 154.672 47.2874V37.1082C154.672 36.5581 155.118 36.1122 155.668 36.1122C156.218 36.1122 156.664 36.5581 156.664 37.1082V43.9602Z" stroke="#0C0C0C" mask="url(#path-69-outside-1_701_13061)"/>
</svg>
