<svg id="rate" viewBox="0 0 100 100" fill="none" xmlns="http://www.w3.org/2000/svg">
<path d="M100 50C100 61.1212 96.2923 71.925 89.4633 80.7025C82.6344 89.4801 73.0739 95.7305 62.2942 98.465C51.5144 101.199 40.1307 100.262 29.9434 95.801C19.7562 91.34 11.347 83.6099 6.04588 73.8335C0.744749 64.0571 -1.14571 52.7923 0.673509 41.8209C2.49273 30.8496 7.91778 20.7978 16.0906 13.2556C24.2634 5.71332 34.7175 1.11108 45.7994 0.176764C56.8813 -0.757551 67.9583 2.02939 77.2786 8.09679L66.7237 24.3104C61.0097 20.5906 54.2187 18.882 47.4247 19.4548C40.6308 20.0276 34.2217 22.8491 29.2112 27.4731C24.2006 32.097 20.8747 38.2594 19.7594 44.9856C18.6441 51.7119 19.8031 58.618 23.053 64.6116C26.303 70.6053 31.4584 75.3443 37.7039 78.0793C43.9494 80.8142 50.9285 81.3889 57.5372 79.7124C64.146 78.036 70.0072 74.2041 74.1938 68.8228C78.3804 63.4415 80.6535 56.8181 80.6535 50H100Z" fill="#58D513"/>
<path d="M100 50C100 41.6859 97.9267 33.5029 93.9678 26.1918C90.0089 18.8807 84.2894 12.6722 77.3269 8.12825L66.7533 24.3297C71.0218 27.1154 74.5283 30.9217 76.9554 35.4039C79.3825 39.8861 80.6535 44.9028 80.6535 50H100Z" fill="#FEC204"/>
<path d="M40.9446 56.179C39.9602 56.179 39.0845 56.0192 38.3175 55.6996C37.5547 55.3757 36.956 54.9347 36.5213 54.3764C36.0866 53.8182 35.8693 53.1854 35.8693 52.478C35.8693 51.9325 35.9929 51.4318 36.2401 50.9759C36.4915 50.5156 36.8324 50.1342 37.2628 49.8317C37.6932 49.5249 38.1747 49.3288 38.7074 49.2436V49.1541C38.0085 49.0135 37.4418 48.6747 37.0071 48.1378C36.5724 47.5966 36.3551 46.968 36.3551 46.2521C36.3551 45.5746 36.5533 44.9716 36.9496 44.4432C37.3459 43.9105 37.8892 43.4929 38.5795 43.1903C39.2741 42.8835 40.0625 42.7301 40.9446 42.7301C41.8267 42.7301 42.6129 42.8835 43.3033 43.1903C43.9979 43.4972 44.5433 43.9169 44.9396 44.4496C45.3359 44.978 45.5362 45.5788 45.5405 46.2521C45.5362 46.9723 45.3146 47.6009 44.8757 48.1378C44.4368 48.6747 43.8743 49.0135 43.1882 49.1541V49.2436C43.7124 49.3288 44.1875 49.5249 44.6136 49.8317C45.044 50.1342 45.3849 50.5156 45.6364 50.9759C45.892 51.4318 46.022 51.9325 46.0263 52.478C46.022 53.1854 45.8026 53.8182 45.3679 54.3764C44.9332 54.9347 44.3324 55.3757 43.5653 55.6996C42.8026 56.0192 41.929 56.179 40.9446 56.179ZM40.9446 54.1463C41.3835 54.1463 41.767 54.0675 42.0952 53.9098C42.4233 53.7479 42.679 53.5263 42.8622 53.245C43.0497 52.9595 43.1435 52.6314 43.1435 52.2607C43.1435 51.8814 43.0476 51.5469 42.8558 51.2571C42.6641 50.9631 42.4041 50.733 42.076 50.5668C41.7479 50.3963 41.3707 50.3111 40.9446 50.3111C40.5227 50.3111 40.1456 50.3963 39.8132 50.5668C39.4808 50.733 39.2188 50.9631 39.027 51.2571C38.8395 51.5469 38.7457 51.8814 38.7457 52.2607C38.7457 52.6314 38.8374 52.9595 39.0206 53.245C39.2038 53.5263 39.4616 53.7479 39.794 53.9098C40.1264 54.0675 40.5099 54.1463 40.9446 54.1463ZM40.9446 48.2976C41.3111 48.2976 41.6371 48.223 41.9226 48.0739C42.2081 47.9247 42.4318 47.718 42.5938 47.4538C42.7557 47.1896 42.8366 46.8849 42.8366 46.5398C42.8366 46.1989 42.7557 45.9006 42.5938 45.6449C42.4318 45.3849 42.2102 45.1825 41.929 45.0376C41.6477 44.8885 41.3196 44.8139 40.9446 44.8139C40.5739 44.8139 40.2457 44.8885 39.9602 45.0376C39.6747 45.1825 39.451 45.3849 39.2891 45.6449C39.1314 45.9006 39.0526 46.1989 39.0526 46.5398C39.0526 46.8849 39.1335 47.1896 39.2955 47.4538C39.4574 47.718 39.6811 47.9247 39.9666 48.0739C40.2521 48.223 40.5781 48.2976 40.9446 48.2976ZM52.7427 56.179C51.8393 56.179 51.0339 56.0128 50.3265 55.6804C49.6234 55.348 49.0652 54.8899 48.6518 54.3061C48.2385 53.7223 48.0233 53.0533 48.0062 52.299H50.6909C50.7207 52.8061 50.9338 53.2173 51.3301 53.5327C51.7264 53.848 52.1973 54.0057 52.7427 54.0057C53.1774 54.0057 53.5609 53.9098 53.8933 53.718C54.2299 53.522 54.492 53.2514 54.6795 52.9062C54.8713 52.5568 54.9672 52.1562 54.9672 51.7045C54.9672 51.2443 54.8691 50.8395 54.6731 50.4901C54.4814 50.1406 54.215 49.8679 53.8741 49.6719C53.5332 49.4759 53.1433 49.3757 52.7044 49.3714C52.3208 49.3714 51.948 49.4503 51.5858 49.608C51.2278 49.7656 50.9487 49.9808 50.7484 50.2536L48.2875 49.8125L48.9075 42.9091H56.9103V45.1719H51.1895L50.8507 48.451H50.9274C51.1575 48.1271 51.5048 47.8587 51.9693 47.6456C52.4338 47.4325 52.9537 47.326 53.5289 47.326C54.3173 47.326 55.0204 47.5114 55.6383 47.8821C56.2562 48.2528 56.7441 48.7621 57.1021 49.4098C57.4601 50.0533 57.6369 50.7947 57.6326 51.6342C57.6369 52.5163 57.4324 53.3004 57.019 53.9865C56.6099 54.6683 56.0368 55.2053 55.2995 55.5973C54.5666 55.9851 53.7143 56.179 52.7427 56.179ZM66.7285 53.5455V52.8551C66.7285 52.331 66.8393 51.8494 67.0609 51.4105C67.2868 50.9673 67.6127 50.6136 68.0389 50.3494C68.4693 50.081 68.9934 49.9467 69.6113 49.9467C70.2377 49.9467 70.764 50.0788 71.1902 50.343C71.6206 50.6072 71.9444 50.9609 72.1618 51.4041C72.3833 51.843 72.4941 52.3267 72.4941 52.8551V53.5455C72.4941 54.0696 72.3833 54.5533 72.1618 54.9964C71.9402 55.4354 71.6142 55.7869 71.1838 56.0511C70.7534 56.3196 70.2292 56.4538 69.6113 56.4538C68.9849 56.4538 68.4586 56.3196 68.0325 56.0511C67.6064 55.7869 67.2825 55.4354 67.0609 54.9964C66.8393 54.5533 66.7285 54.0696 66.7285 53.5455ZM68.5886 52.8551V53.5455C68.5886 53.848 68.661 54.1335 68.8059 54.402C68.9551 54.6705 69.2235 54.8047 69.6113 54.8047C69.9991 54.8047 70.2633 54.6726 70.4039 54.4084C70.5488 54.1442 70.6213 53.8565 70.6213 53.5455V52.8551C70.6213 52.544 70.5531 52.2543 70.4167 51.9858C70.2804 51.7173 70.0119 51.5831 69.6113 51.5831C69.2278 51.5831 68.9615 51.7173 68.8123 51.9858C68.6632 52.2543 68.5886 52.544 68.5886 52.8551ZM60.0105 46.054V45.3636C60.0105 44.8352 60.1234 44.3516 60.3493 43.9126C60.5751 43.4695 60.9011 43.1158 61.3272 42.8516C61.7576 42.5874 62.2775 42.4553 62.8869 42.4553C63.5176 42.4553 64.046 42.5874 64.4721 42.8516C64.8983 43.1158 65.2221 43.4695 65.4437 43.9126C65.6653 44.3516 65.7761 44.8352 65.7761 45.3636V46.054C65.7761 46.5824 65.6632 47.0661 65.4373 47.505C65.2157 47.9439 64.8897 48.2955 64.4593 48.5597C64.0332 48.8196 63.5091 48.9496 62.8869 48.9496C62.2647 48.9496 61.7385 48.8175 61.3081 48.5533C60.8819 48.2848 60.5581 47.9332 60.3365 47.4986C60.1191 47.0597 60.0105 46.5781 60.0105 46.054ZM61.8833 45.3636V46.054C61.8833 46.3651 61.9558 46.6527 62.1007 46.9169C62.2498 47.1811 62.5119 47.3132 62.8869 47.3132C63.2789 47.3132 63.5453 47.1811 63.6859 46.9169C63.8308 46.6527 63.9032 46.3651 63.9032 46.054V45.3636C63.9032 45.0526 63.835 44.7628 63.6987 44.4943C63.5623 44.2259 63.2917 44.0916 62.8869 44.0916C62.5076 44.0916 62.2456 44.228 62.1007 44.5007C61.9558 44.7734 61.8833 45.0611 61.8833 45.3636ZM60.8542 56L69.8542 42.9091H71.5289L62.5289 56H60.8542Z" fill="#313B5C"/>
</svg>
