<svg id="teacher" viewBox="0 0 24 24" fill="none" xmlns="http://www.w3.org/2000/svg">
<path d="M17.3645 5.9661C17.3645 9.04975 15.1905 11.4322 12.6442 11.4322C10.0978 11.4322 7.92383 9.04975 7.92383 5.9661C7.92383 2.88245 10.0978 0.5 12.6442 0.5C15.1905 0.5 17.3645 2.88245 17.3645 5.9661Z" stroke="#4C39E3"/>
<path d="M7.79688 5.22021C8.77325 5.88261 9.50712 5.81385 10.8387 4.7105C11.2382 4.37947 11.8199 4.37107 12.2171 4.70481C14.4237 6.55873 15.6718 6.83332 17.4918 5.96597" stroke="#4C39E3" stroke-width="0.9" stroke-linecap="round"/>
<path d="M12.2714 22.9998V16.6358C12.2714 16.2054 11.996 15.8232 11.5877 15.6871L6.8758 14.1165C6.22827 13.9006 5.55957 14.3826 5.55957 15.0652V20.0417C5.55957 20.4722 5.835 20.8543 6.24334 20.9904L12.2714 22.9998ZM12.2714 22.9998L18.2509 21.3388C18.6838 21.2186 18.9833 20.8245 18.9833 20.3753V15.3871C18.9833 14.7195 18.3416 14.2393 17.7011 14.4277L12.6443 15.915" stroke="#4C39E3" stroke-width="1.5" stroke-linecap="round"/>
<path d="M5.49951 13C3.69632 14.257 2.81586 18.1965 4.4997 20" stroke="#4C39E3" stroke-width="1.5" stroke-linecap="round"/>
<path d="M19.9998 20C21.7239 18.1571 20.1877 15.0885 18.4995 13" stroke="#4C39E3" stroke-width="1.5" stroke-linecap="round"/>
<path d="M6 13C10.6877 11.6833 13.3123 11.6501 18 13" stroke="#4C39E3" stroke-width="1.5" stroke-linecap="round"/>
</svg>
