<svg id="type" viewBox="0 0 24 24" fill="none" xmlns="http://www.w3.org/2000/svg">
<line x1="4.92773" y1="5.96387" x2="14.3563" y2="5.96387" stroke="#4C39E3" stroke-width="1.5"/>
<line x1="4.92773" y1="9.10742" x2="14.3563" y2="9.10742" stroke="#4C39E3" stroke-width="1.5"/>
<line x1="4.92871" y1="12.25" x2="11.2144" y2="12.25" stroke="#4C39E3" stroke-width="1.5"/>
<line x1="4.92773" y1="15.3926" x2="11.2134" y2="15.3926" stroke="#4C39E3" stroke-width="1.5"/>
<mask id="path-5-inside-1_785_14182" fill="white">
<rect x="1" y="2" width="16.5" height="20.4286" rx="0.5"/>
</mask>
<rect x="1" y="2" width="16.5" height="20.4286" rx="0.5" stroke="#4C39E3" stroke-width="3" mask="url(#path-5-inside-1_785_14182)"/>
<path d="M20.25 5.53599L13.3011 12.4849C13.2204 12.5656 13.1578 12.6627 13.1177 12.7697L12.0822 15.531C12.0513 15.6134 12.1343 15.6927 12.2153 15.658L14.5995 14.6362C14.6988 14.5936 14.7885 14.5314 14.8631 14.4533L21.8214 7.16354M20.25 5.53599L21.075 4.71098C21.2703 4.51571 21.5869 4.51571 21.7821 4.71098L22.6546 5.58342C22.8466 5.77548 22.8502 6.08574 22.6627 6.28222L21.8214 7.16354M20.25 5.53599L21.8214 7.16354" stroke="#4C39E3" stroke-width="1.5" stroke-linecap="round"/>
</svg>
